<svg width="144" height="43" viewBox="0 0 144 43" fill="none" xmlns="http://www.w3.org/2000/svg">
<g clip-path="url(#clip0_53_1044)">
<mask id="mask0_53_1044" style="mask-type:luminance" maskUnits="userSpaceOnUse" x="-117" y="-48" width="373" height="267">
<path d="M255.348 -47.6123H-116.53V218.364H255.348V-47.6123Z" fill="white"/>
</mask>
<g mask="url(#mask0_53_1044)">
<path d="M35.7041 15.1509C36.6302 15.1496 37.547 15.3375 38.3996 15.7031C39.2522 16.0688 40.0231 16.6048 40.6661 17.2789C41.3091 17.9531 41.811 18.7516 42.1416 19.6266C42.4723 20.5017 42.6249 21.4352 42.5905 22.3713C42.4989 24.1985 41.7183 25.9207 40.4093 27.1832C39.1003 28.4458 37.3626 29.1527 35.5539 29.1583C34.6284 29.1417 33.7154 28.939 32.8679 28.5622C32.0205 28.1854 31.2556 27.6419 30.6177 26.9634C29.9798 26.2849 29.4816 25.4849 29.1521 24.6098C28.8227 23.7348 28.6684 22.8023 28.6984 21.8664C28.7201 20.96 28.9189 20.067 29.2834 19.2386C29.6478 18.4103 30.1707 17.6631 30.8219 17.0401C31.4731 16.4171 32.2398 15.9307 33.0777 15.6087C33.9156 15.2868 34.8082 15.1357 35.7041 15.1643" fill="#42B8BD"/>
<path d="M70.6351 5.96448C70.168 4.18441 69.0546 2.64793 67.517 1.66157C65.9794 0.67521 64.1307 0.311494 62.3397 0.642989C58.2317 1.4249 56.2086 4.97256 56.5753 9.74C56.6676 11.5158 56.607 13.2963 56.3942 15.0615C55.8645 17.5777 54.468 19.8217 52.454 21.3928C51.7075 21.8977 50.9743 22.3847 50.2454 22.8226C49.9318 22.9879 49.6536 23.1443 49.3974 23.2962C49.0219 23.4972 48.642 23.6894 48.2489 23.8636C43.8317 25.8072 41.7733 29.0332 42.9129 33.1975C43.8847 36.7719 47.7012 39.006 51.3895 38.2017C55.4091 37.3081 57.4234 34.0196 56.8094 29.3415C55.8199 21.8083 58.3333 17.5994 65.3787 14.9945C69.7385 13.386 71.7041 10.026 70.6484 5.98235" fill="#23418F"/>
<path d="M29.2373 11.143C28.8612 9.33804 27.8247 7.74352 26.3356 6.67882C24.8464 5.61412 23.0145 5.15787 21.2069 5.4015C17.068 5.97788 14.8771 9.42277 15.0229 14.1992C15.0282 15.9767 14.8804 17.7512 14.5812 19.5028C13.9299 21.9908 12.4253 24.1636 10.3362 25.633C9.57207 26.1066 8.81232 26.5534 8.05256 26.9734C7.72569 27.1209 7.44299 27.2638 7.16913 27.4202C6.78042 27.6034 6.3917 27.7777 5.99416 27.9296C1.50631 29.6543 -0.724367 32.773 0.212074 36.9909C1.01158 40.5966 4.71318 43.0317 8.43686 42.4062C12.4962 41.7181 14.6651 38.5279 14.2808 33.823C13.6535 26.2541 16.3701 22.1702 23.5303 19.9228C27.9475 18.5287 30.0854 15.267 29.2285 11.1787" fill="#23418F"/>
</g>
<path d="M88.3634 3.68515V13.4991H86.1234L81.6714 7.63315V13.4991H79.2774V3.68515H81.5314L85.9974 9.59315L85.9834 3.68515H88.3634ZM93.7973 5.84114C94.6186 5.84114 95.3419 6.00448 95.9673 6.33115C96.5926 6.64848 97.0779 7.10115 97.4233 7.68915C97.7686 8.26781 97.9413 8.93981 97.9413 9.70515C97.9413 10.4798 97.7686 11.1611 97.4233 11.7491C97.0779 12.3278 96.5926 12.7805 95.9673 13.1071C95.3419 13.4245 94.6186 13.5831 93.7973 13.5831C92.9759 13.5831 92.2526 13.4245 91.6273 13.1071C91.0019 12.7805 90.5166 12.3278 90.1713 11.7491C89.8353 11.1611 89.6673 10.4798 89.6673 9.70515C89.6673 8.93981 89.8353 8.26781 90.1713 7.68915C90.5166 7.10115 91.0019 6.64848 91.6273 6.33115C92.2526 6.00448 92.9759 5.84114 93.7973 5.84114ZM93.7973 7.85715C93.3119 7.85715 92.9199 8.02981 92.6213 8.37515C92.3226 8.72048 92.1733 9.17315 92.1733 9.73315C92.1733 10.3025 92.3226 10.7598 92.6213 11.1051C92.9199 11.4505 93.3119 11.6231 93.7973 11.6231C94.2919 11.6231 94.6886 11.4505 94.9873 11.1051C95.2859 10.7598 95.4353 10.3025 95.4353 9.73315C95.4353 9.17315 95.2813 8.72048 94.9733 8.37515C94.6746 8.02981 94.2826 7.85715 93.7973 7.85715ZM109.319 5.82714C110.14 5.82714 110.798 6.08848 111.293 6.61115C111.788 7.13381 112.035 7.83848 112.035 8.72515V13.4991H109.543V9.43915C109.543 9.00981 109.431 8.67381 109.207 8.43115C108.983 8.17915 108.68 8.05315 108.297 8.05315C107.858 8.06248 107.508 8.22581 107.247 8.54315C106.995 8.85115 106.869 9.25715 106.869 9.76115V13.4991H104.377V9.43915C104.377 9.00981 104.265 8.67381 104.041 8.43115C103.817 8.17915 103.514 8.05315 103.131 8.05315C102.692 8.06248 102.342 8.22581 102.081 8.54315C101.82 8.85115 101.689 9.25715 101.689 9.76115V13.4991H99.211V5.92515H101.689V7.17115C101.95 6.73248 102.286 6.40115 102.697 6.17715C103.117 5.94381 103.602 5.82714 104.153 5.82714C104.769 5.82714 105.296 5.97648 105.735 6.27515C106.174 6.57381 106.486 6.98915 106.673 7.52115C106.916 6.96115 107.261 6.54115 107.709 6.26115C108.166 5.97181 108.703 5.82714 109.319 5.82714ZM117.245 5.84114C118.066 5.84114 118.789 6.00448 119.415 6.33115C120.04 6.64848 120.525 7.10115 120.871 7.68915C121.216 8.26781 121.389 8.93981 121.389 9.70515C121.389 10.4798 121.216 11.1611 120.871 11.7491C120.525 12.3278 120.04 12.7805 119.415 13.1071C118.789 13.4245 118.066 13.5831 117.245 13.5831C116.423 13.5831 115.7 13.4245 115.075 13.1071C114.449 12.7805 113.964 12.3278 113.619 11.7491C113.283 11.1611 113.115 10.4798 113.115 9.70515C113.115 8.93981 113.283 8.26781 113.619 7.68915C113.964 7.10115 114.449 6.64848 115.075 6.33115C115.7 6.00448 116.423 5.84114 117.245 5.84114ZM117.245 7.85715C116.759 7.85715 116.367 8.02981 116.069 8.37515C115.77 8.72048 115.621 9.17315 115.621 9.73315C115.621 10.3025 115.77 10.7598 116.069 11.1051C116.367 11.4505 116.759 11.6231 117.245 11.6231C117.739 11.6231 118.136 11.4505 118.435 11.1051C118.733 10.7598 118.883 10.3025 118.883 9.73315C118.883 9.17315 118.729 8.72048 118.421 8.37515C118.122 8.02981 117.73 7.85715 117.245 7.85715ZM123.938 5.92515L125.45 11.0491L126.934 5.92515H129.314L130.812 11.0491L132.324 5.92515H134.76L131.988 13.4991H129.524L128.082 8.82315L126.626 13.4991H124.162L121.404 5.92515H123.938Z" fill="#42B8BD"/>
<path d="M86.0394 25.3917C85.5167 25.0837 84.9567 24.8317 84.3594 24.6357C83.7714 24.4397 83.2767 24.3417 82.8754 24.3417C82.5581 24.3417 82.3061 24.4024 82.1194 24.5237C81.9421 24.6357 81.8534 24.8037 81.8534 25.0277C81.8534 25.2424 81.9327 25.4244 82.0914 25.5737C82.2501 25.7137 82.4461 25.8304 82.6794 25.9237C82.9127 26.0077 83.2581 26.1197 83.7154 26.2597C84.3967 26.4557 84.9567 26.6517 85.3954 26.8477C85.8434 27.0437 86.2261 27.347 86.5434 27.7577C86.8607 28.159 87.0194 28.6864 87.0194 29.3397C87.0194 29.993 86.8467 30.553 86.5014 31.0197C86.1561 31.477 85.6801 31.8224 85.0734 32.0557C84.4761 32.289 83.8087 32.4057 83.0714 32.4057C82.2594 32.4057 81.4474 32.2657 80.6354 31.9857C79.8327 31.6964 79.1374 31.3044 78.5494 30.8097L79.5434 28.8077C80.0381 29.2464 80.6214 29.6057 81.2934 29.8857C81.9747 30.1657 82.5767 30.3057 83.0994 30.3057C83.4821 30.3057 83.7807 30.2357 83.9954 30.0957C84.2194 29.9557 84.3314 29.7504 84.3314 29.4797C84.3314 29.2557 84.2474 29.069 84.0794 28.9197C83.9207 28.7704 83.7154 28.6537 83.4634 28.5697C83.2207 28.4764 82.8754 28.369 82.4274 28.2477C81.7554 28.061 81.2001 27.8744 80.7614 27.6877C80.3227 27.4917 79.9447 27.2024 79.6274 26.8197C79.3194 26.4277 79.1654 25.9097 79.1654 25.2657C79.1654 24.659 79.3241 24.127 79.6414 23.6697C79.9681 23.2124 80.4254 22.8624 81.0134 22.6197C81.6107 22.3677 82.3014 22.2417 83.0854 22.2417C83.7947 22.2417 84.4947 22.3444 85.1854 22.5497C85.8761 22.7457 86.4827 23.0117 87.0054 23.3477L86.0394 25.3917ZM91.8422 24.5937C92.6635 24.5937 93.3869 24.757 94.0122 25.0837C94.6375 25.401 95.1229 25.8537 95.4682 26.4417C95.8135 27.0204 95.9862 27.6924 95.9862 28.4577C95.9862 29.2324 95.8135 29.9137 95.4682 30.5017C95.1229 31.0804 94.6375 31.533 94.0122 31.8597C93.3869 32.177 92.6635 32.3357 91.8422 32.3357C91.0209 32.3357 90.2975 32.177 89.6722 31.8597C89.0469 31.533 88.5615 31.0804 88.2162 30.5017C87.8802 29.9137 87.7122 29.2324 87.7122 28.4577C87.7122 27.6924 87.8802 27.0204 88.2162 26.4417C88.5615 25.8537 89.0469 25.401 89.6722 25.0837C90.2975 24.757 91.0209 24.5937 91.8422 24.5937ZM91.8422 26.6097C91.3569 26.6097 90.9649 26.7824 90.6662 27.1277C90.3675 27.473 90.2182 27.9257 90.2182 28.4857C90.2182 29.055 90.3675 29.5124 90.6662 29.8577C90.9649 30.203 91.3569 30.3757 91.8422 30.3757C92.3369 30.3757 92.7335 30.203 93.0322 29.8577C93.3309 29.5124 93.4802 29.055 93.4802 28.4857C93.4802 27.9257 93.3262 27.473 93.0182 27.1277C92.7195 26.7824 92.3275 26.6097 91.8422 26.6097ZM100.927 23.7397C100.675 23.7397 100.469 23.8097 100.311 23.9497C100.152 24.0897 100.073 24.2904 100.073 24.5517V25.0417H101.753V26.6937H100.073V32.2517H97.5945V26.6937H96.5725V25.0417H97.5945V24.3417C97.5945 23.539 97.8605 22.909 98.3925 22.4517C98.9339 21.985 99.6245 21.7517 100.465 21.7517C101.015 21.7517 101.557 21.8497 102.089 22.0457L101.767 23.9357C101.393 23.805 101.113 23.7397 100.927 23.7397ZM107.83 31.8597C107.55 32.0184 107.228 32.1444 106.864 32.2377C106.5 32.3217 106.132 32.3637 105.758 32.3637C105.012 32.3637 104.405 32.149 103.938 31.7197C103.481 31.2904 103.252 30.6977 103.252 29.9417V26.6937H102.202V25.0417H103.252V22.9417H105.73V25.0417H107.69V26.6937H105.73V29.5497C105.73 30.0817 105.95 30.3477 106.388 30.3477C106.659 30.3477 106.981 30.2637 107.354 30.0957L107.83 31.8597Z" fill="#23418F"/>
</g>
<defs>
<clipPath id="clip0_53_1044">
<rect width="144" height="42" fill="white" transform="translate(0 0.5)"/>
</clipPath>
</defs>
</svg>
