<svg width="28" height="28" viewBox="0 0 28 28" fill="none" xmlns="http://www.w3.org/2000/svg">
<rect width="28" height="28" rx="4" fill="#F6EBFF"/>
<g clip-path="url(#clip0_454_1467)">
<mask id="path-2-inside-1_454_1467" fill="white">
<path d="M17.75 20H6.875C6.3779 19.9994 5.90133 19.8017 5.54983 19.4502C5.19833 19.0987 5.0006 18.6221 5 18.125L5 6.875C5 5.8415 5.8415 5 6.875 5H12.875C12.9532 5 13.0294 5.02444 13.093 5.06989C13.1566 5.11535 13.2044 5.17954 13.2297 5.2535L18.1047 19.5035C18.1237 19.56 18.1291 19.6201 18.1203 19.679C18.1115 19.7379 18.0889 19.7939 18.0542 19.8424C18.0196 19.8909 17.974 19.9304 17.9211 19.9578C17.8682 19.9852 17.8096 19.9997 17.75 20ZM6.875 5.75C6.25475 5.75 5.75 6.25475 5.75 6.875V18.125C5.75 18.7452 6.25475 19.25 6.875 19.25H17.225L12.6072 5.75H6.875Z"/>
</mask>
<path d="M17.75 20H6.875C6.3779 19.9994 5.90133 19.8017 5.54983 19.4502C5.19833 19.0987 5.0006 18.6221 5 18.125L5 6.875C5 5.8415 5.8415 5 6.875 5H12.875C12.9532 5 13.0294 5.02444 13.093 5.06989C13.1566 5.11535 13.2044 5.17954 13.2297 5.2535L18.1047 19.5035C18.1237 19.56 18.1291 19.6201 18.1203 19.679C18.1115 19.7379 18.0889 19.7939 18.0542 19.8424C18.0196 19.8909 17.974 19.9304 17.9211 19.9578C17.8682 19.9852 17.8096 19.9997 17.75 20ZM6.875 5.75C6.25475 5.75 5.75 6.25475 5.75 6.875V18.125C5.75 18.7452 6.25475 19.25 6.875 19.25H17.225L12.6072 5.75H6.875Z" fill="#473391"/>
<path d="M17.75 20V21L17.7556 21L17.75 20ZM6.875 20L6.8738 21H6.875V20ZM5 18.125H4L4 18.1262L5 18.125ZM12.875 5L12.8751 4H12.875V5ZM13.2297 5.2535L14.1759 4.92981L14.1758 4.9295L13.2297 5.2535ZM18.1047 19.5035L19.0526 19.1848L19.0509 19.1798L18.1047 19.5035ZM17.225 19.25V20.25H18.6239L18.1712 18.9264L17.225 19.25ZM12.6072 5.75L13.5534 5.42635L13.3221 4.75H12.6072V5.75ZM17.75 20V19H6.875V20V21H17.75V20ZM6.875 20L6.8762 19C6.6439 18.9997 6.4212 18.9073 6.25694 18.7431L5.54983 19.4502L4.84273 20.1573C5.38147 20.696 6.1119 20.9991 6.8738 21L6.875 20ZM5.54983 19.4502L6.25694 18.7431C6.09268 18.5788 6.00028 18.3561 6 18.1238L5 18.125L4 18.1262C4.00091 18.8881 4.30398 19.6185 4.84273 20.1573L5.54983 19.4502ZM5 18.125H6V6.875H5H4V18.125H5ZM5 6.875H6C6 6.39378 6.39378 6 6.875 6V5V4C5.28922 4 4 5.28922 4 6.875H5ZM6.875 5V6H12.875V5V4H6.875V5ZM12.875 5L12.8749 6C12.7446 5.99999 12.6176 5.95926 12.5116 5.88351L13.093 5.06989L13.6744 4.25628C13.4412 4.08962 13.1617 4.00002 12.8751 4L12.875 5ZM13.093 5.06989L12.5116 5.88351C12.4056 5.80775 12.3259 5.70076 12.2837 5.5775L13.2297 5.2535L14.1758 4.9295C14.0829 4.65832 13.9076 4.42294 13.6744 4.25628L13.093 5.06989ZM13.2297 5.2535L12.2836 5.57719L17.1586 19.8272L18.1047 19.5035L19.0509 19.1798L14.1759 4.92981L13.2297 5.2535ZM18.1047 19.5035L17.1569 19.8222C17.1255 19.7288 17.1167 19.6291 17.1312 19.5316L18.1203 19.679L19.1093 19.8265C19.1415 19.6111 19.122 19.3912 19.0526 19.1848L18.1047 19.5035ZM18.1203 19.679L17.1312 19.5316C17.1457 19.434 17.1832 19.3413 17.2406 19.261L18.0542 19.8424L18.8679 20.4237C18.9945 20.2466 19.0772 20.0419 19.1093 19.8265L18.1203 19.679ZM18.0542 19.8424L17.2406 19.261C17.2979 19.1808 17.3735 19.1153 17.4611 19.0699L17.9211 19.9578L18.3811 20.8457C18.5745 20.7455 18.7413 20.6009 18.8679 20.4237L18.0542 19.8424ZM17.9211 19.9578L17.4611 19.0699C17.5487 19.0245 17.6458 19.0006 17.7444 19L17.75 20L17.7556 21C17.9734 20.9988 18.1877 20.9459 18.3811 20.8457L17.9211 19.9578ZM6.875 5.75V4.75C5.70247 4.75 4.75 5.70247 4.75 6.875H5.75H6.75C6.75 6.80703 6.80703 6.75 6.875 6.75V5.75ZM5.75 6.875H4.75V18.125H5.75H6.75V6.875H5.75ZM5.75 18.125H4.75C4.75 19.2975 5.70247 20.25 6.875 20.25V19.25V18.25C6.80703 18.25 6.75 18.193 6.75 18.125H5.75ZM6.875 19.25V20.25H17.225V19.25V18.25H6.875V19.25ZM17.225 19.25L18.1712 18.9264L13.5534 5.42635L12.6072 5.75L11.6611 6.07365L16.2788 19.5736L17.225 19.25ZM12.6072 5.75V4.75H6.875V5.75V6.75H12.6072V5.75Z" fill="#473391" mask="url(#path-2-inside-1_454_1467)"/>
<mask id="path-4-inside-2_454_1467" fill="white">
<path d="M21.125 23H15.125C15.0487 23 14.9743 22.9767 14.9115 22.9333C14.8488 22.8899 14.8008 22.8284 14.774 22.757L13.649 19.757C13.614 19.6639 13.6174 19.5607 13.6585 19.4701C13.6995 19.3796 13.7749 19.309 13.868 19.274C13.9611 19.239 14.0643 19.2424 14.1549 19.2835C14.2454 19.3245 14.316 19.3999 14.351 19.493L15.3853 22.25H21.125C21.7452 22.25 22.25 21.7452 22.25 21.125V9.875C22.25 9.25475 21.7452 8.75 21.125 8.75H14C13.9005 8.75 13.8052 8.71049 13.7348 8.64016C13.6645 8.56984 13.625 8.47446 13.625 8.375C13.625 8.27554 13.6645 8.18016 13.7348 8.10984C13.8052 8.03951 13.9005 8 14 8H21.125C22.1585 8 23 8.8415 23 9.875V21.125C23 22.1585 22.1585 23 21.125 23Z"/>
</mask>
<path d="M21.125 23H15.125C15.0487 23 14.9743 22.9767 14.9115 22.9333C14.8488 22.8899 14.8008 22.8284 14.774 22.757L13.649 19.757C13.614 19.6639 13.6174 19.5607 13.6585 19.4701C13.6995 19.3796 13.7749 19.309 13.868 19.274C13.9611 19.239 14.0643 19.2424 14.1549 19.2835C14.2454 19.3245 14.316 19.3999 14.351 19.493L15.3853 22.25H21.125C21.7452 22.25 22.25 21.7452 22.25 21.125V9.875C22.25 9.25475 21.7452 8.75 21.125 8.75H14C13.9005 8.75 13.8052 8.71049 13.7348 8.64016C13.6645 8.56984 13.625 8.47446 13.625 8.375C13.625 8.27554 13.6645 8.18016 13.7348 8.10984C13.8052 8.03951 13.9005 8 14 8H21.125C22.1585 8 23 8.8415 23 9.875V21.125C23 22.1585 22.1585 23 21.125 23Z" fill="#473391"/>
<path d="M14.774 22.757L13.8377 23.1081L13.838 23.109L14.774 22.757ZM13.649 19.757L14.5853 19.4059L14.585 19.405L13.649 19.757ZM14.351 19.493L15.2873 19.1418L15.287 19.141L14.351 19.493ZM15.3853 22.25L14.449 22.6012L14.6923 23.25H15.3853V22.25ZM14 8V9V8ZM21.125 23V22H15.125V23V24H21.125V23ZM15.125 23V22C15.2521 22 15.3762 22.0388 15.4808 22.1111L14.9115 22.9333L14.3423 23.7555C14.5723 23.9147 14.8453 24 15.125 24V23ZM14.9115 22.9333L15.4808 22.1111C15.5853 22.1835 15.6653 22.286 15.71 22.405L14.774 22.757L13.838 23.109C13.9364 23.3708 14.1124 23.5963 14.3423 23.7555L14.9115 22.9333ZM14.774 22.757L15.7103 22.4059L14.5853 19.4059L13.649 19.757L12.7127 20.1081L13.8377 23.1081L14.774 22.757ZM13.649 19.757L14.585 19.405C14.6433 19.5602 14.6377 19.7321 14.5692 19.8831L13.6585 19.4701L12.7477 19.0572C12.5971 19.3893 12.5846 19.7677 12.713 20.109L13.649 19.757ZM13.6585 19.4701L14.5692 19.8831C14.5008 20.0341 14.3752 20.1517 14.22 20.21L13.868 19.274L13.516 18.338C13.1747 18.4664 12.8983 18.7251 12.7477 19.0572L13.6585 19.4701ZM13.868 19.274L14.22 20.21C14.0649 20.2683 13.8929 20.2627 13.7419 20.1942L14.1549 19.2835L14.5678 18.3727C14.2357 18.2221 13.8573 18.2096 13.516 18.338L13.868 19.274ZM14.1549 19.2835L13.7419 20.1942C13.5909 20.1258 13.4733 20.0002 13.415 19.845L14.351 19.493L15.287 19.141C15.1586 18.7997 14.8999 18.5233 14.5678 18.3727L14.1549 19.2835ZM14.351 19.493L13.4147 19.8442L14.449 22.6012L15.3853 22.25L16.3215 21.8988L15.2873 19.1418L14.351 19.493ZM15.3853 22.25V23.25H21.125V22.25V21.25H15.3853V22.25ZM21.125 22.25V23.25C22.2975 23.25 23.25 22.2975 23.25 21.125H22.25H21.25C21.25 21.193 21.193 21.25 21.125 21.25V22.25ZM22.25 21.125H23.25V9.875H22.25H21.25V21.125H22.25ZM22.25 9.875H23.25C23.25 8.70247 22.2975 7.75 21.125 7.75V8.75V9.75C21.193 9.75 21.25 9.80703 21.25 9.875H22.25ZM21.125 8.75V7.75H14V8.75V9.75H21.125V8.75ZM14 8.75V7.75C14.1658 7.75 14.3247 7.81585 14.4419 7.93306L13.7348 8.64016L13.0277 9.34727C13.2856 9.60513 13.6353 9.75 14 9.75V8.75ZM13.7348 8.64016L14.4419 7.93306C14.5592 8.05027 14.625 8.20924 14.625 8.375H13.625H12.625C12.625 8.73967 12.7699 9.08941 13.0277 9.34727L13.7348 8.64016ZM13.625 8.375H14.625C14.625 8.54076 14.5592 8.69973 14.4419 8.81694L13.7348 8.10984L13.0277 7.40273C12.7699 7.66059 12.625 8.01033 12.625 8.375H13.625ZM13.7348 8.10984L14.4419 8.81694C14.3247 8.93415 14.1658 9 14 9L14 8V7C13.6353 7 13.2856 7.14487 13.0277 7.40273L13.7348 8.10984ZM14 8V9H21.125V8V7H14V8ZM21.125 8V9C21.6062 9 22 9.39378 22 9.875H23H24C24 8.28922 22.7108 7 21.125 7V8ZM23 9.875H22V21.125H23H24V9.875H23ZM23 21.125H22C22 21.6062 21.6062 22 21.125 22V23V24C22.7108 24 24 22.7108 24 21.125H23Z" fill="#473391" mask="url(#path-4-inside-2_454_1467)"/>
<mask id="path-6-inside-3_454_1467" fill="white">
<path d="M15.125 23C15.0529 23.0001 14.9823 22.9793 14.9216 22.9402C14.861 22.9012 14.8129 22.8454 14.7831 22.7797C14.7534 22.714 14.7432 22.6411 14.7538 22.5698C14.7644 22.4985 14.7954 22.4317 14.843 22.3775L17.468 19.3775C17.5005 19.3404 17.5399 19.3101 17.5841 19.2882C17.6282 19.2664 17.6763 19.2535 17.7255 19.2502C17.7746 19.2469 17.824 19.2534 17.8706 19.2692C17.9173 19.285 17.9604 19.3098 17.9975 19.3422C18.0346 19.3747 18.0649 19.4141 18.0868 19.4583C18.1086 19.5025 18.1215 19.5505 18.1248 19.5997C18.1281 19.6489 18.1216 19.6982 18.1058 19.7449C18.09 19.7916 18.0652 19.8347 18.0328 19.8717L15.4078 22.8717C15.3725 22.912 15.329 22.9443 15.2802 22.9664C15.2315 22.9885 15.1785 23 15.125 23ZM12.125 15.5C12.0476 15.5001 11.9721 15.4762 11.9088 15.4316C11.8455 15.3871 11.7977 15.3239 11.7718 15.251L10.25 10.9902L8.72825 15.251C8.69484 15.3447 8.62557 15.4213 8.53569 15.4639C8.44582 15.5065 8.34269 15.5117 8.249 15.4782C8.15532 15.4448 8.07874 15.3756 8.03612 15.2857C7.9935 15.1958 7.98834 15.0927 8.02175 14.999L9.89675 9.749C10.0033 9.4505 10.4968 9.4505 10.6025 9.749L12.4775 14.999C12.4977 15.0555 12.504 15.1161 12.4959 15.1756C12.4878 15.235 12.4655 15.2917 12.431 15.3408C12.3965 15.3899 12.3506 15.43 12.2974 15.4577C12.2441 15.4854 12.185 15.4999 12.125 15.5Z"/>
</mask>
<path d="M15.125 23C15.0529 23.0001 14.9823 22.9793 14.9216 22.9402C14.861 22.9012 14.8129 22.8454 14.7831 22.7797C14.7534 22.714 14.7432 22.6411 14.7538 22.5698C14.7644 22.4985 14.7954 22.4317 14.843 22.3775L17.468 19.3775C17.5005 19.3404 17.5399 19.3101 17.5841 19.2882C17.6282 19.2664 17.6763 19.2535 17.7255 19.2502C17.7746 19.2469 17.824 19.2534 17.8706 19.2692C17.9173 19.285 17.9604 19.3098 17.9975 19.3422C18.0346 19.3747 18.0649 19.4141 18.0868 19.4583C18.1086 19.5025 18.1215 19.5505 18.1248 19.5997C18.1281 19.6489 18.1216 19.6982 18.1058 19.7449C18.09 19.7916 18.0652 19.8347 18.0328 19.8717L15.4078 22.8717C15.3725 22.912 15.329 22.9443 15.2802 22.9664C15.2315 22.9885 15.1785 23 15.125 23ZM12.125 15.5C12.0476 15.5001 11.9721 15.4762 11.9088 15.4316C11.8455 15.3871 11.7977 15.3239 11.7718 15.251L10.25 10.9902L8.72825 15.251C8.69484 15.3447 8.62557 15.4213 8.53569 15.4639C8.44582 15.5065 8.34269 15.5117 8.249 15.4782C8.15532 15.4448 8.07874 15.3756 8.03612 15.2857C7.9935 15.1958 7.98834 15.0927 8.02175 14.999L9.89675 9.749C10.0033 9.4505 10.4968 9.4505 10.6025 9.749L12.4775 14.999C12.4977 15.0555 12.504 15.1161 12.4959 15.1756C12.4878 15.235 12.4655 15.2917 12.431 15.3408C12.3965 15.3899 12.3506 15.43 12.2974 15.4577C12.2441 15.4854 12.185 15.4999 12.125 15.5Z" fill="#473391"/>
<path d="M15.125 23L15.1257 24H15.1258L15.125 23ZM14.843 22.3775L15.5943 23.0375L15.5956 23.036L14.843 22.3775ZM17.468 19.3775L16.7155 18.7189L16.7154 18.719L17.468 19.3775ZM18.0328 19.8717L17.2802 19.2132L17.2802 19.2132L18.0328 19.8717ZM15.4078 22.8717L16.1596 23.5311L16.1603 23.5303L15.4078 22.8717ZM12.125 15.5L12.1266 16.5L12.1269 16.5L12.125 15.5ZM11.7718 15.251L12.7141 14.9163L12.7135 14.9147L11.7718 15.251ZM10.25 10.9902L11.1917 10.6539L10.25 8.01713L9.30827 10.6539L10.25 10.9902ZM8.72825 15.251L7.78652 14.9147L7.78638 14.915L8.72825 15.251ZM8.02175 14.999L7.08001 14.6627L7.07988 14.663L8.02175 14.999ZM9.89675 9.749L10.8385 10.0853L10.8386 10.085L9.89675 9.749ZM10.6025 9.749L9.6599 10.0829L9.66076 10.0853L10.6025 9.749ZM12.4775 14.999L13.4194 14.663L13.4192 14.6627L12.4775 14.999ZM15.125 23L15.1243 22C15.2445 21.9999 15.3622 22.0345 15.4632 22.0996L14.9216 22.9402L14.38 23.7809C14.6023 23.9241 14.8613 24.0002 15.1257 24L15.125 23ZM14.9216 22.9402L15.4632 22.0996C15.5643 22.1647 15.6444 22.2576 15.694 22.3671L14.7831 22.7797L13.8723 23.1924C13.9814 23.4333 14.1577 23.6376 14.38 23.7809L14.9216 22.9402ZM14.7831 22.7797L15.694 22.3671C15.7436 22.4766 15.7606 22.5981 15.7429 22.717L14.7538 22.5698L13.7647 22.4226C13.7258 22.6842 13.7631 22.9515 13.8723 23.1924L14.7831 22.7797ZM14.7538 22.5698L15.7429 22.717C15.7252 22.8359 15.6736 22.9472 15.5943 23.0375L14.843 22.3775L14.0917 21.7175C13.9172 21.9162 13.8036 22.161 13.7647 22.4226L14.7538 22.5698ZM14.843 22.3775L15.5956 23.036L18.2206 20.036L17.468 19.3775L16.7154 18.719L14.0904 21.719L14.843 22.3775ZM17.468 19.3775L18.2205 20.0361C18.1665 20.0978 18.1008 20.1483 18.0273 20.1847L17.5841 19.2882L17.1409 18.3918C16.979 18.4719 16.8344 18.583 16.7155 18.7189L17.468 19.3775ZM17.5841 19.2882L18.0273 20.1847C17.9537 20.221 17.8737 20.2426 17.7919 20.248L17.7255 19.2502L17.659 18.2524C17.4788 18.2644 17.3028 18.3118 17.1409 18.3918L17.5841 19.2882ZM17.7255 19.2502L17.7919 20.248C17.71 20.2535 17.6279 20.2427 17.5502 20.2164L17.8706 19.2692L18.1911 18.3219C18.02 18.264 17.8392 18.2404 17.659 18.2524L17.7255 19.2502ZM17.8706 19.2692L17.5502 20.2164C17.4725 20.1901 17.4007 20.1488 17.3389 20.0948L17.9975 19.3422L18.6561 18.5897C18.5202 18.4708 18.3622 18.3798 18.1911 18.3219L17.8706 19.2692ZM17.9975 19.3422L17.3389 20.0948C17.2772 20.0407 17.2267 19.9751 17.1903 19.9015L18.0868 19.4583L18.9832 19.0151C18.9031 18.8532 18.792 18.7087 18.6561 18.5897L17.9975 19.3422ZM18.0868 19.4583L17.1903 19.9015C17.154 19.828 17.1325 19.748 17.127 19.6661L18.1248 19.5997L19.1226 19.5333C19.1106 19.3531 19.0632 19.177 18.9832 19.0151L18.0868 19.4583ZM18.1248 19.5997L17.127 19.6661C17.1216 19.5842 17.1323 19.5021 17.1586 19.4244L18.1058 19.7449L19.0531 20.0653C19.111 19.8943 19.1346 19.7135 19.1226 19.5333L18.1248 19.5997ZM18.1058 19.7449L17.1586 19.4244C17.1849 19.3467 17.2262 19.2749 17.2802 19.2132L18.0328 19.8717L18.7853 20.5303C18.9042 20.3944 18.9952 20.2364 19.0531 20.0653L18.1058 19.7449ZM18.0328 19.8717L17.2802 19.2132L14.6552 22.2132L15.4078 22.8717L16.1603 23.5303L18.7853 20.5303L18.0328 19.8717ZM15.4078 22.8717L14.6559 22.2124C14.7144 22.1457 14.7864 22.0923 14.8671 22.0557L15.2802 22.9664L15.6933 23.8771C15.8715 23.7962 16.0305 23.6783 16.1596 23.5311L15.4078 22.8717ZM15.2802 22.9664L14.8671 22.0557C14.9479 22.0191 15.0355 22.0001 15.1242 22L15.125 23L15.1258 24C15.3216 23.9998 15.515 23.9579 15.6933 23.8771L15.2802 22.9664ZM12.125 15.5L12.1235 14.5C12.2529 14.4998 12.3792 14.5397 12.4849 14.6143L11.9088 15.4316L11.3327 16.249C11.565 16.4127 11.8423 16.5004 12.1266 16.5L12.125 15.5ZM11.9088 15.4316L12.4849 14.6143C12.5907 14.6889 12.6708 14.7944 12.7141 14.9163L11.7718 15.251L10.8294 15.5857C10.9245 15.8535 11.1004 16.0852 11.3327 16.249L11.9088 15.4316ZM11.7718 15.251L12.7135 14.9147L11.1917 10.6539L10.25 10.9902L9.30827 11.3266L10.83 15.5873L11.7718 15.251ZM10.25 10.9902L9.30827 10.6539L7.78652 14.9147L8.72825 15.251L9.66999 15.5873L11.1917 11.3266L10.25 10.9902ZM8.72825 15.251L7.78638 14.915C7.84206 14.7589 7.95748 14.6313 8.10724 14.5603L8.53569 15.4639L8.96414 16.3674C9.29366 16.2112 9.54761 15.9304 9.67013 15.587L8.72825 15.251ZM8.53569 15.4639L8.10724 14.5603C8.25701 14.4893 8.42885 14.4807 8.58496 14.5364L8.249 15.4782L7.91305 16.4201C8.25653 16.5426 8.63463 16.5237 8.96414 16.3674L8.53569 15.4639ZM8.249 15.4782L8.58496 14.5364C8.74107 14.5921 8.86867 14.7075 8.93969 14.8572L8.03612 15.2857L7.13256 15.7141C7.28881 16.0437 7.56956 16.2976 7.91305 16.4201L8.249 15.4782ZM8.03612 15.2857L8.93969 14.8572C9.0107 15.007 9.01931 15.1788 8.96363 15.335L8.02175 14.999L7.07988 14.663C6.95736 15.0065 6.97631 15.3846 7.13256 15.7141L8.03612 15.2857ZM8.02175 14.999L8.9635 15.3353L10.8385 10.0853L9.89675 9.749L8.95501 9.41266L7.08001 14.6627L8.02175 14.999ZM9.89675 9.749L10.8386 10.085C10.7092 10.4478 10.3875 10.5251 10.2499 10.5251C10.1124 10.5251 9.78912 10.4477 9.65991 10.0829L10.6025 9.749L11.5451 9.41506C11.3101 8.75184 10.6872 8.52512 10.2499 8.52512C9.81251 8.52512 9.19085 8.75165 8.9549 9.41296L9.89675 9.749ZM10.6025 9.749L9.66076 10.0853L11.5358 15.3353L12.4775 14.999L13.4192 14.6627L11.5442 9.41266L10.6025 9.749ZM12.4775 14.999L11.5356 15.335C11.502 15.2408 11.4915 15.1399 11.505 15.0407L12.4959 15.1756L13.4868 15.3104C13.5164 15.0923 13.4933 14.8703 13.4194 14.663L12.4775 14.999ZM12.4959 15.1756L11.505 15.0407C11.5185 14.9416 11.5556 14.8472 11.6132 14.7654L12.431 15.3408L13.2488 15.9162C13.3755 15.7362 13.4571 15.5285 13.4868 15.3104L12.4959 15.1756ZM12.431 15.3408L11.6132 14.7654C11.6707 14.6835 11.7471 14.6167 11.8358 14.5706L12.2974 15.4577L12.759 16.3448C12.9542 16.2432 13.1222 16.0962 13.2488 15.9162L12.431 15.3408ZM12.2974 15.4577L11.8358 14.5706C11.9246 14.5244 12.0231 14.5002 12.1231 14.5L12.125 15.5L12.1269 16.5C12.347 16.4996 12.5637 16.4464 12.759 16.3448L12.2974 15.4577Z" fill="#473391" mask="url(#path-6-inside-3_454_1467)"/>
<path d="M11 13.25H9.5C9.40054 13.25 9.30516 13.2105 9.23484 13.1402C9.16451 13.0698 9.125 12.9745 9.125 12.875C9.125 12.7755 9.16451 12.6802 9.23484 12.6098C9.30516 12.5395 9.40054 12.5 9.5 12.5H11C11.0995 12.5 11.1948 12.5395 11.2652 12.6098C11.3355 12.6802 11.375 12.7755 11.375 12.875C11.375 12.9745 11.3355 13.0698 11.2652 13.1402C11.1948 13.2105 11.0995 13.25 11 13.25ZM21.125 13.25H15.875C15.7755 13.25 15.6802 13.2105 15.6098 13.1402C15.5395 13.0698 15.5 12.9745 15.5 12.875C15.5 12.7755 15.5395 12.6802 15.6098 12.6098C15.6802 12.5395 15.7755 12.5 15.875 12.5H21.125C21.2245 12.5 21.3198 12.5395 21.3902 12.6098C21.4605 12.6802 21.5 12.7755 21.5 12.875C21.5 12.9745 21.4605 13.0698 21.3902 13.1402C21.3198 13.2105 21.2245 13.25 21.125 13.25Z" fill="#473391"/>
<path d="M18.125 13.25C18.0255 13.25 17.9302 13.2105 17.8598 13.1402C17.7895 13.0698 17.75 12.9745 17.75 12.875V12.125C17.75 12.0255 17.7895 11.9302 17.8598 11.8598C17.9302 11.7895 18.0255 11.75 18.125 11.75C18.2244 11.75 18.3198 11.7895 18.3902 11.8598C18.4605 11.9302 18.5 12.0255 18.5 12.125V12.875C18.5 12.9745 18.4605 13.0698 18.3902 13.1402C18.3198 13.2105 18.2244 13.25 18.125 13.25ZM17 17.75C16.9201 17.751 16.8419 17.7262 16.7771 17.6795C16.7123 17.6327 16.6641 17.5664 16.6398 17.4903C16.6154 17.4141 16.6162 17.3322 16.6419 17.2565C16.6675 17.1808 16.7168 17.1153 16.7825 17.0698C18.4242 15.9035 19.625 13.5245 19.625 12.8758C19.625 12.7763 19.6645 12.6809 19.7348 12.6106C19.8052 12.5403 19.9005 12.5008 20 12.5008C20.0994 12.5008 20.1948 12.5403 20.2652 12.6106C20.3355 12.6809 20.375 12.7763 20.375 12.8758C20.375 13.8643 18.9297 16.4645 17.2175 17.6818C17.1537 17.7262 17.0778 17.75 17 17.75Z" fill="#473391"/>
<path d="M20 18.5C19.9064 18.5004 19.8161 18.4653 19.7473 18.4017C19.475 18.1527 17.0788 15.9395 16.6528 14.891C16.6192 14.7997 16.6225 14.699 16.6619 14.61C16.7012 14.5211 16.7736 14.4509 16.8637 14.4143C16.9538 14.3777 17.0546 14.3776 17.1448 14.4139C17.2351 14.4502 17.3076 14.5202 17.3473 14.609C17.654 15.3643 19.5493 17.2033 20.2535 17.8483C20.3093 17.8993 20.3484 17.966 20.3656 18.0397C20.3828 18.1133 20.3774 18.1904 20.35 18.2609C20.3225 18.3314 20.2744 18.392 20.212 18.4346C20.1495 18.4773 20.0756 18.5001 20 18.5Z" fill="#473391"/>
</g>
<defs>
<clipPath id="clip0_454_1467">
<rect width="18" height="18" fill="white" transform="translate(5 5)"/>
</clipPath>
</defs>
</svg>
