<svg width="18" height="18" viewBox="0 0 18 18" fill="none" xmlns="http://www.w3.org/2000/svg">
<mask id="mask0_2087_645" style="mask-type:luminance" maskUnits="userSpaceOnUse" x="0" y="0" width="18" height="18">
<path d="M18 0H0V18H18V0Z" fill="white"/>
</mask>
<g mask="url(#mask0_2087_645)">
<path d="M12.75 15H1.875C1.3779 14.9994 0.90133 14.8017 0.54983 14.4502C0.19833 14.0987 0.0006 13.6221 0 13.125V1.875C0 0.8415 0.8415 0 1.875 0H7.875C7.9532 0 8.0294 0.02444 8.093 0.06989C8.1566 0.11535 8.2044 0.17954 8.2297 0.2535L13.1047 14.5035C13.1237 14.56 13.1291 14.6201 13.1203 14.679C13.1115 14.7379 13.0889 14.7939 13.0542 14.8424C13.0196 14.8909 12.974 14.9304 12.9211 14.9578C12.8682 14.9852 12.8096 14.9997 12.75 15ZM1.875 0.75C1.25475 0.75 0.75 1.25475 0.75 1.875V13.125C0.75 13.7452 1.25475 14.25 1.875 14.25H12.225L7.6072 0.75H1.875Z" fill="#23418F"/>
<mask id="mask1_2087_645" style="mask-type:luminance" maskUnits="userSpaceOnUse" x="0" y="0" width="14" height="15">
<path d="M12.75 15H1.875C1.3779 14.9994 0.90133 14.8017 0.54983 14.4502C0.19833 14.0987 0.0006 13.6221 0 13.125V1.875C0 0.8415 0.8415 0 1.875 0H7.875C7.9532 0 8.0294 0.02444 8.093 0.06989C8.1566 0.11535 8.2044 0.17954 8.2297 0.2535L13.1047 14.5035C13.1237 14.56 13.1291 14.6201 13.1203 14.679C13.1115 14.7379 13.0889 14.7939 13.0542 14.8424C13.0196 14.8909 12.974 14.9304 12.9211 14.9578C12.8682 14.9852 12.8096 14.9997 12.75 15ZM1.875 0.75C1.25475 0.75 0.75 1.25475 0.75 1.875V13.125C0.75 13.7452 1.25475 14.25 1.875 14.25H12.225L7.6072 0.75H1.875Z" fill="white"/>
</mask>
<g mask="url(#mask1_2087_645)">
<path d="M12.75 15V16H12.7556L12.75 15ZM1.875 15L1.8738 16H1.875V15ZM0 13.125H-1V13.1262L0 13.125ZM13.1047 14.5035L14.0526 14.1848L14.0509 14.1798L13.1047 14.5035ZM12.225 14.25V15.25H13.6239L13.1712 13.9264L12.225 14.25ZM7.6072 0.75L8.5534 0.42635L8.3221 -0.25H7.6072V0.75ZM12.75 15V14H1.875V15V16H12.75V15ZM1.875 15L1.8762 14C1.6439 13.9997 1.4212 13.9073 1.25694 13.7431L0.54983 14.4502L-0.15727 15.1573C0.38147 15.696 1.1119 15.9991 1.8738 16L1.875 15ZM0.54983 14.4502L1.25694 13.7431C1.09268 13.5788 1.00028 13.3561 1 13.1238L0 13.125L-1 13.1262C-0.99909 13.8881 -0.69602 14.6185 -0.15727 15.1573L0.54983 14.4502ZM0 13.125H1V1.875H0H-1V13.125H0ZM0 1.875H1C1 1.39378 1.39378 1 1.875 1V0V-1C0.28922 -1 -1 0.28922 -1 1.875H0ZM1.875 0V1H7.875V0L7.8751 -1H1.875V0ZM7.875 0V1C7.7447 0.99999 7.6176 0.95926 7.5116 0.88351L8.093 0.06989L8.6744 -0.74372C8.4412 -0.91038 8.1617 -0.99998 7.8751 -1L7.875 0ZM8.093 0.06989L7.5116 0.88351C7.4056 0.80775 7.3259 0.70076 7.2837 0.5775L8.2297 0.2535L9.1759 -0.07019C9.083 -0.34137 8.9076 -0.57706 8.6744 -0.74372L8.093 0.06989ZM8.2297 0.2535L7.2837 0.5775L12.1586 14.8272L13.1047 14.5035L14.0509 14.1798L9.1759 -0.07019L8.2297 0.2535ZM13.1047 14.5035L12.1569 14.8222C12.1255 14.7288 12.1167 14.6291 12.1312 14.5316L13.1203 14.679L14.1093 14.8265C14.1415 14.6111 14.122 14.3912 14.0526 14.1848L13.1047 14.5035ZM13.1203 14.679L12.1312 14.5316C12.1457 14.434 12.1832 14.3413 12.2406 14.261L13.0542 14.8424L13.8679 15.4237C13.9945 15.2466 14.0772 15.0419 14.1093 14.8265L13.1203 14.679ZM13.0542 14.8424L12.2406 14.261C12.2979 14.1808 12.3735 14.1153 12.4611 14.0699L12.9211 14.9578L13.3811 15.8457C13.5745 15.7455 13.7413 15.6009 13.8679 15.4237L13.0542 14.8424ZM12.9211 14.9578L12.4611 14.0699C12.5487 14.0245 12.6458 14.0006 12.7444 14L12.75 15L12.7556 16C12.9734 15.9988 13.1877 15.9459 13.3811 15.8457L12.9211 14.9578ZM1.875 0.75V-0.25C0.70247 -0.25 -0.25 0.70247 -0.25 1.875H0.75H1.75C1.75 1.80703 1.80703 1.75 1.875 1.75V0.75ZM0.75 1.875H-0.25V13.125H0.75H1.75V1.875H0.75ZM0.75 13.125H-0.25C-0.25 14.2975 0.70247 15.25 1.875 15.25V14.25V13.25C1.80703 13.25 1.75 13.193 1.75 13.125H0.75ZM1.875 14.25V15.25H12.225V14.25V13.25H1.875V14.25ZM12.225 14.25L13.1712 13.9264L8.5534 0.42635L7.6072 0.75L6.6611 1.07365L11.2788 14.5736L12.225 14.25ZM7.6072 0.75V-0.25H1.875V0.75V1.75H7.6072V0.75Z" fill="#23418F"/>
</g>
<path d="M16.125 18H10.125C10.0487 18 9.9743 17.9767 9.9115 17.9333C9.8488 17.8899 9.8008 17.8284 9.774 17.757L8.649 14.757C8.614 14.6639 8.6174 14.5607 8.6585 14.4701C8.6995 14.3796 8.7749 14.309 8.868 14.274C8.9611 14.239 9.0643 14.2424 9.1549 14.2835C9.2454 14.3245 9.316 14.3999 9.351 14.493L10.3853 17.25H16.125C16.7452 17.25 17.25 16.7452 17.25 16.125V4.875C17.25 4.25475 16.7452 3.75 16.125 3.75H9C8.9005 3.75 8.8052 3.71049 8.7348 3.64016C8.6645 3.56984 8.625 3.47446 8.625 3.375C8.625 3.27554 8.6645 3.18016 8.7348 3.10984C8.8052 3.03951 8.9005 3 9 3H16.125C17.1585 3 18 3.8415 18 4.875V16.125C18 17.1585 17.1585 18 16.125 18Z" fill="#23418F"/>
<mask id="mask2_2087_645" style="mask-type:luminance" maskUnits="userSpaceOnUse" x="8" y="3" width="10" height="15">
<path d="M16.125 18H10.125C10.0487 18 9.9743 17.9767 9.9115 17.9333C9.8488 17.8899 9.8008 17.8284 9.774 17.757L8.649 14.757C8.614 14.6639 8.6174 14.5607 8.6585 14.4701C8.6995 14.3796 8.7749 14.309 8.868 14.274C8.9611 14.239 9.0643 14.2424 9.1549 14.2835C9.2454 14.3245 9.316 14.3999 9.351 14.493L10.3853 17.25H16.125C16.7452 17.25 17.25 16.7452 17.25 16.125V4.875C17.25 4.25475 16.7452 3.75 16.125 3.75H9C8.9005 3.75 8.8052 3.71049 8.7348 3.64016C8.6645 3.56984 8.625 3.47446 8.625 3.375C8.625 3.27554 8.6645 3.18016 8.7348 3.10984C8.8052 3.03951 8.9005 3 9 3H16.125C17.1585 3 18 3.8415 18 4.875V16.125C18 17.1585 17.1585 18 16.125 18Z" fill="white"/>
</mask>
<g mask="url(#mask2_2087_645)">
<path d="M10.3853 17.25L9.44902 17.6012L9.69232 18.25H10.3853V17.25ZM16.125 18V17H10.125V18V19H16.125V18ZM10.125 18V17C10.2521 17 10.3762 17.0388 10.4808 17.1111L9.91152 17.9333L9.34232 18.7555C9.57232 18.9147 9.84532 19 10.125 19V18ZM9.91152 17.9333L10.4808 17.1111C10.5853 17.1835 10.6653 17.286 10.71 17.405L9.77402 17.757L8.83772 18.1081C8.93612 18.3699 9.11242 18.5963 9.34232 18.7555L9.91152 17.9333ZM9.77402 17.757L10.71 17.405L9.58532 14.4059L8.64902 14.757L7.71272 15.1081L8.83772 18.1081L9.77402 17.757ZM8.64902 14.757L9.58532 14.4059C9.64362 14.5611 9.63772 14.7321 9.56922 14.8831L8.65852 14.4701L7.74772 14.0572C7.59712 14.3893 7.58432 14.7668 7.71272 15.1081L8.64902 14.757ZM8.65852 14.4701L9.56922 14.8831C9.50082 15.0341 9.37522 15.1517 9.22002 15.21L8.86802 14.274L8.51602 13.338C8.17472 13.4664 7.89832 13.7251 7.74772 14.0572L8.65852 14.4701ZM8.86802 14.274L9.22002 15.21C9.06492 15.2683 8.89292 15.2627 8.74192 15.1942L9.15492 14.2835L9.56782 13.3727C9.23572 13.2221 8.85732 13.2096 8.51602 13.338L8.86802 14.274ZM9.15492 14.2835L8.74192 15.1942C8.59092 15.1258 8.47332 15.0002 8.41502 14.845L9.35102 14.493L10.2873 14.1418C10.1589 13.8005 9.89992 13.5233 9.56782 13.3727L9.15492 14.2835ZM9.35102 14.493L8.41502 14.845L9.44902 17.6012L10.3853 17.25L11.3215 16.8988L10.2873 14.1418L9.35102 14.493ZM10.3853 17.25V18.25H16.125V17.25V16.25H10.3853V17.25ZM16.125 17.25V18.25C17.2975 18.25 18.25 17.2975 18.25 16.125H17.25H16.25C16.25 16.193 16.193 16.25 16.125 16.25V17.25ZM17.25 16.125H18.25V4.875H17.25H16.25V16.125H17.25ZM17.25 4.875H18.25C18.25 3.70247 17.2975 2.75 16.125 2.75V3.75V4.75C16.193 4.75 16.25 4.80703 16.25 4.875H17.25ZM16.125 3.75V2.75H9.00002V3.75V4.75H16.125V3.75ZM9.00002 3.75V2.75C9.16582 2.75 9.32472 2.81585 9.44192 2.93306L8.73482 3.64016L8.02772 4.34727C8.28562 4.60513 8.63532 4.75 9.00002 4.75V3.75ZM8.73482 3.64016L9.44192 2.93306C9.55922 3.05027 9.62502 3.20924 9.62502 3.375H8.62502H7.62502C7.62502 3.73967 7.76992 4.08941 8.02772 4.34727L8.73482 3.64016ZM8.62502 3.375H9.62502C9.62502 3.54076 9.55922 3.69973 9.44192 3.81694L8.73482 3.10984L8.02772 2.40273C7.76992 2.66059 7.62502 3.01033 7.62502 3.375H8.62502ZM8.73482 3.10984L9.44192 3.81694C9.32472 3.93415 9.16582 4 9.00002 4V3V2C8.63532 2 8.28562 2.14487 8.02772 2.40273L8.73482 3.10984ZM9.00002 3V4H16.125V3V2H9.00002V3ZM16.125 3V4C16.6062 4 17 4.39378 17 4.875H18H19C19 3.28922 17.7108 2 16.125 2V3ZM18 4.875H17V16.125H18H19V4.875H18ZM18 16.125H17C17 16.6062 16.6062 17 16.125 17V18V19C17.7108 19 19 17.7108 19 16.125H18Z" fill="#23418F"/>
</g>
<path d="M10.125 18C10.0529 18.0001 9.98235 17.9793 9.92165 17.9402C9.86105 17.9012 9.81295 17.8454 9.78315 17.7797C9.75345 17.714 9.74325 17.6411 9.75385 17.5698C9.76445 17.4985 9.79545 17.4317 9.84305 17.3775L12.468 14.3775C12.5005 14.3404 12.5399 14.3101 12.5841 14.2882C12.6282 14.2664 12.6763 14.2535 12.7255 14.2502C12.7746 14.2469 12.824 14.2534 12.8706 14.2692C12.9173 14.285 12.9604 14.3098 12.9975 14.3422C13.0346 14.3747 13.0649 14.4141 13.0868 14.4583C13.1086 14.5025 13.1215 14.5505 13.1248 14.5997C13.1281 14.6489 13.1216 14.6982 13.1058 14.7449C13.09 14.7916 13.0652 14.8347 13.0328 14.8717L10.4078 17.8717C10.3725 17.912 10.329 17.9443 10.2802 17.9664C10.2315 17.9885 10.1785 18 10.125 18ZM7.12505 10.5C7.04765 10.5001 6.97215 10.4762 6.90885 10.4316C6.84555 10.3871 6.79775 10.3239 6.77185 10.251L5.25005 5.99019L3.7283 10.251C3.69489 10.3447 3.62562 10.4213 3.53574 10.4639C3.44587 10.5065 3.34274 10.5117 3.24905 10.4782C3.15537 10.4448 3.07879 10.3756 3.03617 10.2857C2.99355 10.1958 2.98839 10.0927 3.0218 9.99899L4.8968 4.74899C5.00335 4.45049 5.49685 4.45049 5.60255 4.74899L7.47755 9.99899C7.49775 10.0555 7.50405 10.1161 7.49595 10.1756C7.48785 10.235 7.46555 10.2917 7.43105 10.3408C7.39655 10.3899 7.35065 10.43 7.29745 10.4577C7.24415 10.4854 7.18505 10.4999 7.12505 10.5Z" fill="#23418F"/>
<mask id="mask3_2087_645" style="mask-type:luminance" maskUnits="userSpaceOnUse" x="3" y="4" width="11" height="14">
<path d="M10.125 18C10.0529 18.0001 9.98235 17.9793 9.92165 17.9402C9.86105 17.9012 9.81295 17.8454 9.78315 17.7797C9.75345 17.714 9.74325 17.6411 9.75385 17.5698C9.76445 17.4985 9.79545 17.4317 9.84305 17.3775L12.468 14.3775C12.5005 14.3404 12.5399 14.3101 12.5841 14.2882C12.6282 14.2664 12.6763 14.2535 12.7255 14.2502C12.7746 14.2469 12.824 14.2534 12.8706 14.2692C12.9173 14.285 12.9604 14.3098 12.9975 14.3422C13.0346 14.3747 13.0649 14.4141 13.0868 14.4583C13.1086 14.5025 13.1215 14.5505 13.1248 14.5997C13.1281 14.6489 13.1216 14.6982 13.1058 14.7449C13.09 14.7916 13.0652 14.8347 13.0328 14.8717L10.4078 17.8717C10.3725 17.912 10.329 17.9443 10.2802 17.9664C10.2315 17.9885 10.1785 18 10.125 18ZM7.12505 10.5C7.04765 10.5001 6.97215 10.4762 6.90885 10.4316C6.84555 10.3871 6.79775 10.3239 6.77185 10.251L5.25005 5.99019L3.7283 10.251C3.69489 10.3447 3.62562 10.4213 3.53574 10.4639C3.44587 10.5065 3.34274 10.5117 3.24905 10.4782C3.15537 10.4448 3.07879 10.3756 3.03617 10.2857C2.99355 10.1958 2.98839 10.0927 3.0218 9.99899L4.8968 4.74899C5.00335 4.45049 5.49685 4.45049 5.60255 4.74899L7.47755 9.99899C7.49775 10.0555 7.50405 10.1161 7.49595 10.1756C7.48785 10.235 7.46555 10.2917 7.43105 10.3408C7.39655 10.3899 7.35065 10.43 7.29745 10.4577C7.24415 10.4854 7.18505 10.4999 7.12505 10.5Z" fill="white"/>
</mask>
<g mask="url(#mask3_2087_645)">
<path d="M9.84304 17.3775L10.5943 18.0375L10.5956 18.036L9.84304 17.3775ZM10.4078 17.8717L11.1596 18.5311L11.1603 18.5303L10.4078 17.8717ZM6.77184 10.251L7.71414 9.91629L7.71354 9.91469L6.77184 10.251ZM5.25004 5.99019L6.19174 5.65389L5.25004 3.01712L4.30831 5.65389L5.25004 5.99019ZM5.60254 4.74899L4.65994 5.08289L4.6608 5.08529L5.60254 4.74899ZM10.125 18L10.1243 17C10.2445 16.9999 10.3622 17.0345 10.4632 17.0996L9.92164 17.9402L9.38004 18.7809C9.60234 18.9241 9.86134 19.0002 10.1257 19L10.125 18ZM9.92164 17.9402L10.4632 17.0996C10.5643 17.1647 10.6444 17.2576 10.694 17.3671L9.78314 17.7797L8.87234 18.1924C8.98144 18.4333 9.15774 18.6376 9.38004 18.7809L9.92164 17.9402ZM9.78314 17.7797L10.694 17.3671C10.7436 17.4766 10.7606 17.5981 10.7429 17.717L9.75384 17.5698L8.76474 17.4226C8.72584 17.6842 8.76314 17.9515 8.87234 18.1924L9.78314 17.7797ZM9.75384 17.5698L10.7429 17.717C10.7252 17.8359 10.6736 17.9472 10.5943 18.0375L9.84304 17.3775L9.09174 16.7175C8.91724 16.9162 8.80364 17.161 8.76474 17.4226L9.75384 17.5698ZM9.84304 17.3775L10.5956 18.036L13.2206 15.036L12.468 14.3775L11.7155 13.7189L9.09044 16.719L9.84304 17.3775ZM12.468 14.3775L13.2206 15.036C13.1666 15.0977 13.1008 15.1483 13.0273 15.1847L12.5841 14.2882L12.1409 13.3918C11.979 13.4719 11.8344 13.583 11.7155 13.7189L12.468 14.3775ZM12.5841 14.2882L13.0273 15.1847C12.9537 15.221 12.8737 15.2426 12.7919 15.248L12.7255 14.2502L12.659 13.2524C12.4788 13.2644 12.3028 13.3118 12.1409 13.3918L12.5841 14.2882ZM12.7255 14.2502L12.7919 15.248C12.71 15.2535 12.6279 15.2427 12.5502 15.2164L12.8706 14.2692L13.1911 13.3219C13.02 13.264 12.8392 13.2404 12.659 13.2524L12.7255 14.2502ZM12.8706 14.2692L12.5502 15.2164C12.4725 15.1901 12.4007 15.1488 12.3389 15.0948L12.9975 14.3422L13.6561 13.5897C13.5202 13.4708 13.3622 13.3798 13.1911 13.3219L12.8706 14.2692ZM12.9975 14.3422L12.3389 15.0948C12.2772 15.0407 12.2267 14.9751 12.1903 14.9015L13.0868 14.4583L13.9832 14.0151C13.9031 13.8532 13.792 13.7087 13.6561 13.5897L12.9975 14.3422ZM13.0868 14.4583L12.1903 14.9015C12.154 14.828 12.1325 14.748 12.127 14.6661L13.1248 14.5997L14.1226 14.5333C14.1106 14.3531 14.0632 14.177 13.9832 14.0151L13.0868 14.4583ZM13.1248 14.5997L12.127 14.6661C12.1216 14.5842 12.1323 14.5021 12.1586 14.4244L13.1058 14.7449L14.0531 15.0653C14.111 14.8943 14.1346 14.7135 14.1226 14.5333L13.1248 14.5997ZM13.1058 14.7449L12.1586 14.4244C12.1849 14.3467 12.2262 14.2749 12.2802 14.2132L13.0328 14.8717L13.7853 15.5303C13.9042 15.3944 13.9952 15.2364 14.0531 15.0653L13.1058 14.7449ZM13.0328 14.8717L12.2802 14.2132L9.65524 17.2132L10.4078 17.8717L11.1603 18.5303L13.7853 15.5303L13.0328 14.8717ZM10.4078 17.8717L9.65594 17.2124C9.71444 17.1457 9.78644 17.0923 9.86714 17.0557L10.2802 17.9664L10.6933 18.8771C10.8715 18.7962 11.0305 18.6783 11.1596 18.5311L10.4078 17.8717ZM10.2802 17.9664L9.86714 17.0557C9.94794 17.0191 10.0356 17.0001 10.1243 17L10.125 18L10.1257 19C10.3215 18.9998 10.515 18.9579 10.6933 18.8771L10.2802 17.9664ZM7.12504 10.5L7.12354 9.49999C7.25294 9.49979 7.37924 9.53969 7.48494 9.61429L6.90884 10.4316L6.33274 11.249C6.56504 11.4127 6.84234 11.5004 7.12664 11.5L7.12504 10.5ZM6.90884 10.4316L7.48494 9.61429C7.59074 9.68889 7.67084 9.79439 7.71414 9.91629L6.77184 10.251L5.82944 10.5857C5.92454 10.8535 6.10044 11.0852 6.33274 11.249L6.90884 10.4316ZM6.77184 10.251L7.71354 9.91469L6.19174 5.65389L5.25004 5.99019L4.30831 6.32659L5.83004 10.5873L6.77184 10.251ZM5.25004 5.99019L4.30831 5.65389L2.78656 9.91469L3.72829 10.251L4.67003 10.5873L6.19174 6.32659L5.25004 5.99019ZM3.72829 10.251L2.78656 9.91469C2.84224 9.75859 2.95752 9.63129 3.10728 9.56029L3.53573 10.4639L3.96418 11.3674C4.2937 11.2112 4.54751 10.9307 4.67003 10.5873L3.72829 10.251ZM3.53573 10.4639L3.10728 9.56029C3.25705 9.48929 3.42889 9.48069 3.585 9.53639L3.24904 10.4782L2.91309 11.4201C3.25657 11.5426 3.63467 11.5237 3.96418 11.3674L3.53573 10.4639ZM3.24904 10.4782L3.585 9.53639C3.74111 9.59209 3.86871 9.70749 3.93973 9.85719L3.03616 10.2857L2.1326 10.7141C2.28885 11.0437 2.5696 11.2976 2.91309 11.4201L3.24904 10.4782ZM3.03616 10.2857L3.93973 9.85719C4.01074 10.007 4.01935 10.1788 3.96367 10.335L3.02179 9.99899L2.08005 9.66269C1.95753 10.0062 1.97635 10.3846 2.1326 10.7141L3.03616 10.2857ZM3.02179 9.99899L3.96367 10.335L5.83854 5.08529L4.89679 4.74899L3.95505 4.41265L2.08005 9.66269L3.02179 9.99899ZM4.89679 4.74899L5.83854 5.08529C5.70914 5.44809 5.38754 5.52509 5.24994 5.52509C5.11244 5.52509 4.78915 5.44769 4.65994 5.08289L5.60254 4.74899L6.54514 4.41505C6.31014 3.75183 5.68724 3.52511 5.24994 3.52511C4.81255 3.52511 4.191 3.75134 3.95505 4.41265L4.89679 4.74899ZM5.60254 4.74899L4.6608 5.08529L6.53584 10.3353L7.47754 9.99899L8.41944 9.66299L6.54424 4.41265L5.60254 4.74899ZM7.47754 9.99899L6.53584 10.3353C6.50224 10.2411 6.49154 10.1399 6.50504 10.0407L7.49594 10.1756L8.48684 10.3104C8.51644 10.0923 8.49334 9.87029 8.41944 9.66299L7.47754 9.99899ZM7.49594 10.1756L6.50504 10.0407C6.51854 9.94159 6.55564 9.84719 6.61324 9.76539L7.43104 10.3408L8.24884 10.9162C8.37554 10.7362 8.45714 10.5285 8.48684 10.3104L7.49594 10.1756ZM7.43104 10.3408L6.61324 9.76539C6.67074 9.68349 6.74714 9.61669 6.83584 9.57059L7.29744 10.4577L7.75904 11.3448C7.95424 11.2432 8.12224 11.0962 8.24884 10.9162L7.43104 10.3408ZM7.29744 10.4577L6.83584 9.57059C6.92464 9.52439 7.02354 9.50019 7.12354 9.49999L7.12504 10.5L7.12664 11.5C7.34674 11.4996 7.56374 11.4464 7.75904 11.3448L7.29744 10.4577Z" fill="#23418F"/>
</g>
<path d="M6 8.25H4.5C4.40054 8.25 4.30516 8.2105 4.23484 8.1402C4.16451 8.0698 4.125 7.9745 4.125 7.875C4.125 7.7755 4.16451 7.6802 4.23484 7.6098C4.30516 7.5395 4.40054 7.5 4.5 7.5H6C6.0995 7.5 6.1948 7.5395 6.2652 7.6098C6.3355 7.6802 6.375 7.7755 6.375 7.875C6.375 7.9745 6.3355 8.0698 6.2652 8.1402C6.1948 8.2105 6.0995 8.25 6 8.25ZM16.125 8.25H10.875C10.7755 8.25 10.6802 8.2105 10.6098 8.1402C10.5395 8.0698 10.5 7.9745 10.5 7.875C10.5 7.7755 10.5395 7.6802 10.6098 7.6098C10.6802 7.5395 10.7755 7.5 10.875 7.5H16.125C16.2245 7.5 16.3198 7.5395 16.3902 7.6098C16.4605 7.6802 16.5 7.7755 16.5 7.875C16.5 7.9745 16.4605 8.0698 16.3902 8.1402C16.3198 8.2105 16.2245 8.25 16.125 8.25Z" fill="#23418F"/>
<path d="M13.125 8.25C13.0255 8.25 12.9302 8.2105 12.8598 8.1402C12.7895 8.0698 12.75 7.9745 12.75 7.875V7.125C12.75 7.0255 12.7895 6.9302 12.8598 6.8598C12.9302 6.7895 13.0255 6.75 13.125 6.75C13.2244 6.75 13.3198 6.7895 13.3902 6.8598C13.4605 6.9302 13.5 7.0255 13.5 7.125V7.875C13.5 7.9745 13.4605 8.0698 13.3902 8.1402C13.3198 8.2105 13.2244 8.25 13.125 8.25ZM12 12.75C11.9201 12.751 11.8419 12.7262 11.7771 12.6795C11.7123 12.6327 11.6641 12.5664 11.6398 12.4903C11.6154 12.4141 11.6162 12.3322 11.6419 12.2565C11.6675 12.1808 11.7168 12.1153 11.7825 12.0698C13.4242 10.9035 14.625 8.5245 14.625 7.8758C14.625 7.7763 14.6645 7.6809 14.7348 7.6106C14.8052 7.5403 14.9005 7.5008 15 7.5008C15.0994 7.5008 15.1948 7.5403 15.2652 7.6106C15.3355 7.6809 15.375 7.7763 15.375 7.8758C15.375 8.8643 13.9297 11.4645 12.2175 12.6818C12.1537 12.7262 12.0778 12.75 12 12.75Z" fill="#23418F"/>
<path d="M15.0001 13.5C14.9065 13.5004 14.8162 13.4653 14.7474 13.4017C14.4751 13.1527 12.0789 10.9395 11.6529 9.89099C11.6193 9.79969 11.6226 9.69899 11.662 9.60999C11.7013 9.52109 11.7737 9.45089 11.8638 9.41429C11.9539 9.37769 12.0547 9.37759 12.1449 9.41389C12.2352 9.45019 12.3077 9.52019 12.3474 9.60899C12.6541 10.3643 14.5494 12.2033 15.2536 12.8483C15.3094 12.8993 15.3485 12.966 15.3657 13.0397C15.3829 13.1133 15.3775 13.1904 15.3501 13.2609C15.3226 13.3314 15.2745 13.392 15.2121 13.4346C15.1496 13.4773 15.0757 13.5001 15.0001 13.5Z" fill="#23418F"/>
</g>
</svg>
