<svg version="1.2" xmlns="http://www.w3.org/2000/svg" viewBox="0 0 38 38" width="38" height="38">
	<style>
		.s0 { fill: #42b8bd } 
		.s1 { fill: #ffffff } 
	</style>
	<g>
		<path fill-rule="evenodd" class="s0" d="m19 38c-10.51 0-19-8.49-19-19 0-10.51 8.49-19 19-19 10.51 0 19 8.49 19 19 0 10.51-8.49 19-19 19z"/>
		<path class="s1" d="m7.75 12.44c0-1.25 0.49-2.44 1.37-3.32 0.88-0.88 2.07-1.37 3.32-1.37h13.12c1.25 0 2.44 0.49 3.32 1.37 0.88 0.88 1.37 2.07 1.37 3.32v13.12c0 1.25-0.49 2.44-1.37 3.32-0.88 0.88-2.07 1.37-3.32 1.37h-13.12c-1.25 0-2.44-0.49-3.32-1.37-0.88-0.88-1.37-2.07-1.37-3.32zm4.69-2.81c-0.75 0-1.46 0.3-1.99 0.82-0.53 0.53-0.83 1.25-0.83 1.99v13.13c0 0.74 0.3 1.46 0.83 1.99 0.53 0.52 1.24 0.82 1.99 0.82h13.12c0.75 0 1.46-0.3 1.99-0.82 0.53-0.53 0.83-1.25 0.83-1.99v-13.13c0-0.74-0.3-1.46-0.83-1.99-0.53-0.52-1.24-0.82-1.99-0.82zm9.38 1.87c-0.5 0-0.98 0.2-1.33 0.55-0.35 0.36-0.55 0.83-0.55 1.33v2.81c0 0.5 0.2 0.98 0.55 1.33 0.35 0.35 0.83 0.55 1.33 0.55h2.81c0.5 0 0.97-0.2 1.33-0.55 0.35-0.35 0.54-0.83 0.54-1.33v-2.81c0-0.5-0.19-0.97-0.54-1.33-0.36-0.35-0.83-0.55-1.33-0.55zm0 8.44c-0.5 0-0.97 0.2-1.33 0.55-0.35 0.35-0.55 0.83-0.55 1.33v2.81c0 0.5 0.2 0.97 0.55 1.33 0.36 0.35 0.83 0.54 1.33 0.54h2.81c0.5 0 0.98-0.19 1.33-0.54 0.35-0.36 0.55-0.83 0.55-1.33v-2.81c0-0.5-0.2-0.98-0.55-1.33-0.35-0.35-0.83-0.55-1.33-0.55zm-8.44-8.44c-0.49 0-0.97 0.2-1.32 0.55-0.35 0.36-0.55 0.83-0.55 1.33v2.81c0 0.5 0.2 0.98 0.55 1.33 0.35 0.35 0.83 0.55 1.32 0.55h2.82c0.49 0 0.97-0.2 1.32-0.55 0.36-0.35 0.55-0.83 0.55-1.33v-2.81c0-0.5-0.19-0.97-0.55-1.33-0.35-0.35-0.83-0.55-1.32-0.55zm0 8.44c-0.5 0-0.98 0.2-1.33 0.55-0.35 0.35-0.55 0.83-0.55 1.33v2.81c0 0.5 0.2 0.97 0.55 1.33 0.35 0.35 0.83 0.54 1.33 0.54h2.81c0.5 0 0.97-0.19 1.33-0.54 0.35-0.36 0.54-0.83 0.54-1.33v-2.81c0-0.5-0.19-0.98-0.54-1.33-0.36-0.35-0.83-0.55-1.33-0.55z"/>
	</g>
</svg>