<svg version="1.2" xmlns="http://www.w3.org/2000/svg" viewBox="0 0 38 38" width="38" height="38">
	<style>
		.s0 { fill: #42b8bd } 
		.s1 { fill: #ffffff } 
	</style>
	<g>
		<path fill-rule="evenodd" class="s0" d="m19 38c-10.51 0-19-8.49-19-19 0-10.51 8.49-19 19-19 10.51 0 19 8.49 19 19 0 10.51-8.49 19-19 19z"/>
		<path class="s1" d="m27 11h-16c-1.1 0-1.99 0.9-1.99 2l-0.01 12c0 1.1 0.9 2 2 2h16c1.1 0 2-0.9 2-2v-12c0-1.1-0.9-2-2-2zm-16 5h10.5v3.5h-10.5zm0 5.5h10.5v3.5h-10.5zm16 3.5h-3.5v-9h3.5z"/>
	</g>
</svg>