<svg version="1.2" xmlns="http://www.w3.org/2000/svg" viewBox="0 0 39 38" width="39" height="38">
	<defs>
		<clipPath clipPathUnits="userSpaceOnUse" id="cp1">
			<path d="m31.5 7v24h-24v-24z"/>
		</clipPath>
	</defs>
	<style>
		.s0 { fill: #33d3d4 } 
		.s1 { fill: #ffffff } 
	</style>
	<g>
		<path fill-rule="evenodd" class="s0" d="m19.5 38c-10.51 0-19-8.49-19-19 0-10.51 8.49-19 19-19 10.51 0 19 8.49 19 19 0 10.51-8.49 19-19 19z"/>
		<g id="Clip-Path" clip-path="url(#cp1)">
			<g>
				<path class="s1" d="m27.33 13.61l-5.52-5.53q-0.45-0.46-1.03-0.71-0.59-0.24-1.22-0.24-0.64 0-1.22 0.24-0.59 0.25-1.03 0.71l-5.54 5.53 7.76 3.87zm2.12 2.24l1.09 1.09q0.46 0.44 0.71 1.03 0.25 0.59 0.25 1.22 0 0.64-0.25 1.22-0.25 0.59-0.71 1.03l-8.82 8.91q-0.32 0.32-0.72 0.53v-10.8zm-19.89 0l-1.1 1.09q-0.46 0.44-0.71 1.03-0.25 0.59-0.25 1.22 0 0.64 0.25 1.22 0.25 0.59 0.71 1.03l8.82 8.91q0.32 0.32 0.72 0.52v-10.79z"/>
			</g>
		</g>
	</g>
</svg>