<svg width="18" height="19" viewBox="0 0 18 19" fill="none" xmlns="http://www.w3.org/2000/svg">
<path fill-rule="evenodd" clip-rule="evenodd" d="M3.74525 3.06127C4.07953 2.7167 4.26339 2.25641 4.25953 1.77813C4.24227 1.31388 4.0483 0.873765 3.7173 0.547784C3.3863 0.221803 2.94327 0.0345845 2.47882 0.0244141C2.01315 0.034998 1.56885 0.221936 1.23569 0.54746C0.902526 0.872984 0.705338 1.31283 0.68396 1.77813C0.69088 2.25586 0.880954 2.71271 1.21495 3.05436C1.54894 3.39601 2.00136 3.59639 2.47882 3.61413C2.95709 3.60289 3.41184 3.40436 3.74525 3.06127ZM2.1471 5.97727C1.39239 5.96056 0.878103 5.94899 0.878103 6.87213V17.1476C0.878103 18.0514 1.36925 18.0334 2.07639 18.0064C2.20496 18.0004 2.33953 17.997 2.4801 17.9961C2.62153 17.997 2.7561 18.0004 2.88382 18.0064C3.58839 18.0321 4.06925 18.0514 4.06925 17.1476V6.87341C4.06925 5.95027 3.56525 5.96056 2.81439 5.97856C2.59199 5.9838 2.3695 5.98252 2.1471 5.97727ZM7.39796 5.99656C7.05596 6.0647 6.8361 6.28327 6.8361 6.87213V17.1476C6.8361 18.0514 7.30796 18.0334 8.01639 18.0064C8.14496 18.0004 8.28125 17.997 8.42525 17.9961C8.56925 17.997 8.70596 18.0004 8.83539 18.0064C9.54767 18.0321 10.0285 18.0514 10.0285 17.1476V11.6678C10.0011 11.3877 10.0335 11.105 10.1236 10.8384C10.2137 10.5717 10.3595 10.3273 10.5512 10.1213C10.7429 9.91521 10.9762 9.75224 11.2356 9.64317C11.4951 9.53409 11.7748 9.48139 12.0561 9.48856C12.3388 9.47163 12.6219 9.51579 12.886 9.61804C13.1501 9.72028 13.3891 9.87821 13.5867 10.0811C13.7843 10.284 13.936 10.527 14.0313 10.7937C14.1265 11.0604 14.1633 11.3445 14.139 11.6267V17.1051C14.139 18.0103 14.6095 17.9923 15.318 17.9653C15.4465 17.9593 15.5828 17.9558 15.7268 17.955C15.8708 17.9558 16.0075 17.9593 16.137 17.9653C16.8454 17.991 17.316 18.0103 17.316 17.1064V10.0916C17.3423 9.51562 17.2471 8.9406 17.0366 8.40387C16.8261 7.86714 16.505 7.38074 16.0941 6.97629C15.6832 6.57185 15.1918 6.25842 14.6518 6.05639C14.1119 5.85437 13.5354 5.76827 12.96 5.8037C12.3738 5.74988 11.7837 5.84767 11.2462 6.08769C10.7088 6.3277 10.2421 6.70188 9.89096 7.17427C9.9051 6.6677 9.74053 5.99656 9.33039 5.99656C9.2121 5.99656 9.03082 5.99013 8.8251 5.9837C8.31082 5.96827 7.64225 5.9477 7.39796 5.99656Z" fill="#23418F"/>
</svg>
