<svg width="20" height="19" viewBox="0 0 20 19" fill="none" xmlns="http://www.w3.org/2000/svg">
<path d="M13.6289 12.891L14.0849 12.438L13.0259 11.374L12.5719 11.827L13.6289 12.891ZM15.6139 12.248L17.5249 13.287L18.2399 11.969L16.3299 10.931L15.6139 12.248ZM17.8919 15.351L16.4719 16.764L17.5289 17.827L18.9489 16.415L17.8919 15.351ZM15.6059 17.218C14.1559 17.354 10.4059 17.233 6.34393 13.195L5.28593 14.258C9.71793 18.665 13.9369 18.881 15.7459 18.712L15.6059 17.218ZM6.34393 13.195C2.47293 9.34496 1.83093 6.10796 1.75093 4.70296L0.252929 4.78796C0.352929 6.55596 1.14793 10.144 5.28593 14.258L6.34393 13.195ZM7.71893 7.01496L8.00593 6.72896L6.94993 5.66596L6.66293 5.95096L7.71893 7.01496ZM8.23393 3.09396L6.97393 1.40996L5.77293 2.30996L7.03293 3.99296L8.23393 3.09396ZM2.73293 1.04296L1.16293 2.60296L2.22093 3.66696L3.78993 2.10696L2.73293 1.04296ZM7.19093 6.48296C6.66093 5.95096 6.66093 5.95096 6.66093 5.95296H6.65893L6.65593 5.95696C6.60841 6.00487 6.56586 6.05748 6.52893 6.11396C6.47493 6.19396 6.41593 6.29896 6.36593 6.43196C6.2442 6.77529 6.21388 7.14437 6.27793 7.50296C6.41193 8.36796 7.00793 9.51096 8.53393 11.029L9.59193 9.96496C8.16293 8.54496 7.82293 7.68096 7.75993 7.27296C7.72993 7.07896 7.76093 6.98296 7.76993 6.96096C7.77593 6.94763 7.77593 6.94563 7.76993 6.95496C7.76101 6.96876 7.75098 6.9818 7.73993 6.99396L7.72993 7.00396L7.71993 7.01296L7.19093 6.48296ZM8.53393 11.029C10.0609 12.547 11.2099 13.139 12.0759 13.271C12.5189 13.339 12.8759 13.285 13.1469 13.184C13.2987 13.1284 13.4406 13.0487 13.5669 12.948L13.6169 12.903L13.6239 12.897L13.6269 12.894L13.6279 12.892C13.6279 12.892 13.6289 12.891 13.0999 12.359C12.5699 11.827 12.5729 11.826 12.5729 11.826L12.5749 11.824L12.5769 11.822L12.5829 11.817L12.5929 11.807L12.6309 11.777C12.6403 11.771 12.6379 11.7716 12.6239 11.779C12.5989 11.788 12.5009 11.819 12.3039 11.789C11.8899 11.725 11.0199 11.385 9.59193 9.96496L8.53393 11.029ZM6.97393 1.40896C5.95393 0.0489599 3.94993 -0.16704 2.73293 1.04296L3.78993 2.10696C4.32193 1.57796 5.26593 1.63296 5.77293 2.30996L6.97393 1.40896ZM1.75193 4.70396C1.73193 4.35796 1.89093 3.99596 2.22093 3.66796L1.16193 2.60396C0.624929 3.13796 0.201929 3.89396 0.252929 4.78796L1.75193 4.70396ZM16.4719 16.764C16.1979 17.038 15.9019 17.192 15.6069 17.219L15.7459 18.712C16.4809 18.643 17.0819 18.273 17.5299 17.828L16.4719 16.764ZM8.00593 6.72896C8.99093 5.74996 9.06393 4.20296 8.23493 3.09496L7.03393 3.99396C7.43693 4.53296 7.37693 5.23996 6.94893 5.66696L8.00593 6.72896ZM17.5259 13.288C18.3429 13.732 18.4699 14.778 17.8929 15.352L18.9509 16.415C20.2909 15.082 19.8779 12.859 18.2409 11.97L17.5259 13.288ZM14.0849 12.439C14.4689 12.057 15.0869 11.963 15.6149 12.249L16.3309 10.932C15.2469 10.342 13.9029 10.505 13.0269 11.375L14.0849 12.439Z" fill="#42B8BD"/>
</svg>
