<svg width="15" height="15" viewBox="0 0 15 15" fill="none" xmlns="http://www.w3.org/2000/svg">
<path d="M7.50001 0C11.6423 0 15 3.35775 15 7.5C15 11.6423 11.6423 15 7.50001 15C6.17458 15.0023 4.87245 14.6515 3.72751 13.9838L0.00301159 15L1.01701 11.274C0.34873 10.1287 -0.00231122 8.82601 1.14515e-05 7.5C1.14515e-05 3.35775 3.35776 0 7.50001 0ZM4.94401 3.975L4.79401 3.981C4.69703 3.98768 4.60227 4.01315 4.51501 4.056C4.43369 4.10213 4.35943 4.15972 4.29451 4.227C4.20451 4.31175 4.15351 4.38525 4.09876 4.4565C3.82135 4.81718 3.67199 5.25998 3.67426 5.715C3.67576 6.0825 3.77176 6.44025 3.92176 6.77475C4.22851 7.45125 4.73326 8.1675 5.39926 8.83125C5.55976 8.991 5.71726 9.1515 5.88676 9.30075C6.71434 10.0293 7.70047 10.5547 8.76676 10.8353L9.19276 10.9005C9.33151 10.908 9.47026 10.8975 9.60976 10.8907C9.82815 10.8792 10.0414 10.8201 10.2345 10.7175C10.3326 10.6668 10.4285 10.6117 10.5218 10.5525C10.5218 10.5525 10.5535 10.531 10.6155 10.485C10.7168 10.41 10.779 10.3568 10.863 10.269C10.926 10.204 10.9785 10.1285 11.0205 10.0425C11.079 9.92025 11.1375 9.687 11.1615 9.49275C11.1795 9.34425 11.1743 9.26325 11.172 9.213C11.169 9.13275 11.1023 9.0495 11.0295 9.01425L10.593 8.8185C10.593 8.8185 9.94051 8.53425 9.54151 8.35275C9.49974 8.33457 9.45501 8.32415 9.40951 8.322C9.35819 8.31663 9.30632 8.32236 9.2574 8.33879C9.20849 8.35523 9.16368 8.38198 9.12601 8.41725C9.12226 8.41575 9.07201 8.4585 8.52976 9.1155C8.49864 9.15732 8.45577 9.18893 8.40661 9.20629C8.35746 9.22366 8.30425 9.22599 8.25376 9.213C8.20488 9.19997 8.15701 9.18343 8.11051 9.1635C8.01751 9.1245 7.98526 9.1095 7.92151 9.0825C7.49092 8.89493 7.09234 8.64111 6.74026 8.33025C6.64576 8.24775 6.55801 8.15775 6.46801 8.07075C6.17297 7.78816 5.91582 7.46849 5.70301 7.11975L5.65876 7.0485C5.62746 7.00035 5.60179 6.94876 5.58226 6.89475C5.55376 6.7845 5.62801 6.696 5.62801 6.696C5.62801 6.696 5.81026 6.4965 5.89501 6.3885C5.97751 6.2835 6.04726 6.1815 6.09226 6.10875C6.18076 5.96625 6.20851 5.82 6.16201 5.70675C5.95201 5.19375 5.73501 4.6835 5.51101 4.176C5.46676 4.0755 5.33551 4.0035 5.21626 3.98925C5.17576 3.98425 5.13526 3.98025 5.09476 3.97725C4.99406 3.97147 4.89308 3.97248 4.79251 3.98025L4.94401 3.975Z" fill="#42B8BD"/>
</svg>
