<svg version="1.2" xmlns="http://www.w3.org/2000/svg" viewBox="0 0 1512 664" width="1512" height="664">
	<defs>
		<clipPath clipPathUnits="userSpaceOnUse" id="cp1">
			<path d="m178.11 301.97h28.31v42.81h-28.31z"/>
		</clipPath>
		<linearGradient id="g1" x2="1" gradientUnits="userSpaceOnUse" gradientTransform="matrix(27.43,22.638,-35.532,43.054,165.612,22.237)">
			<stop offset="0" stop-color="#5a9fd4"/>
			<stop offset="1" stop-color="#306998"/>
		</linearGradient>
		<linearGradient id="g2" x2="1" gradientUnits="userSpaceOnUse" gradientTransform="matrix(-9.994,-13.563,21.812,-16.072,202.353,60.387)">
			<stop offset="0" stop-color="#ffd43b"/>
			<stop offset="1" stop-color="#ffe873"/>
		</linearGradient>
		<radialGradient id="g3" cx="0" cy="0" r="1" gradientUnits="userSpaceOnUse" gradientTransform="matrix(0,-3.109,3.109,0,190.806,72.72)">
			<stop offset="0" stop-color="#b8b8b8" stop-opacity=".5"/>
			<stop offset="1" stop-color="#7f7f7f" stop-opacity="0"/>
		</radialGradient>
	</defs>
	<style>
		.s0 { fill: #f2fafa } 
		.s1 { fill: #ffffff } 
		.s2 { fill: #0acf83 } 
		.s3 { fill: #a259ff } 
		.s4 { fill: #f24e1e } 
		.s5 { fill: #ff7262 } 
		.s6 { fill: #1abcfe } 
		.s7 { fill: #83cd29 } 
		.s8 { fill: url(#g1) } 
		.s9 { fill: url(#g2) } 
		.s10 { opacity: .44;fill: url(#g3) } 
		.s11 { opacity: .2;fill: #f249c8 } 
		.s12 { fill: none;stroke: #f249c8;stroke-linecap: round;stroke-linejoin: round;stroke-width: 1.7 } 
		.s13 { opacity: .2;fill: #e64545 } 
		.s14 { fill: none;stroke: #e64545;stroke-linecap: round;stroke-linejoin: round;stroke-width: 1.7 } 
		.s15 { opacity: .2;fill: #ffc759 } 
		.s16 { fill: none;stroke: #ffc759;stroke-linecap: round;stroke-linejoin: round;stroke-width: 1.7 } 
		.s17 { fill: none;stroke: #0b63e5;stroke-linecap: round;stroke-linejoin: round;stroke-width: 1.8 } 
		.s18 { opacity: .2;fill: #7534ff } 
		.s19 { fill: none;stroke: #7534ff;stroke-linecap: round;stroke-linejoin: round;stroke-width: 1.8 } 
		.s20 { opacity: .2;fill: #ff8800 } 
		.s21 { fill: none;stroke: #ff8800;stroke-linecap: round;stroke-linejoin: round;stroke-width: 1.8 } 
		.s22 { fill: #2489ca } 
		.s23 { fill: #1070b3 } 
		.s24 { fill: #0877b9 } 
		.s25 { fill: #3c99d4 } 
		.s26 { fill: #61dafb } 
	</style>
	<path class="s0" d="m1512 28.55h-1512v628l378-19.38 378-19.38 756-38.77z"/>
	<g style="opacity: .45">
		<g>
			<path fill-rule="evenodd" class="s1" d="m193.87 276.55h0.01c26.44 0 47.87 21.43 47.87 47.87 0 26.44-21.43 47.88-47.87 47.88h-0.01c-26.44 0-47.87-21.44-47.87-47.88 0-26.44 21.43-47.87 47.87-47.87z"/>
			<g id="Clip-Path" clip-path="url(#cp1)">
				<g>
					<path class="s2" d="m185.19 344.78c3.91 0 7.07-3.19 7.07-7.13v-7.14h-7.07c-3.91 0-7.08 3.2-7.08 7.14 0 3.94 3.17 7.13 7.08 7.13z"/>
					<path class="s3" d="m178.11 323.38c0-3.94 3.17-7.14 7.08-7.14h7.07v14.27h-7.07c-3.91 0-7.08-3.19-7.08-7.13z"/>
					<path class="s4" d="m178.11 309.11c0-3.94 3.17-7.14 7.08-7.14h7.08v14.27h-7.08c-3.91 0-7.08-3.19-7.08-7.13z"/>
					<path class="s5" d="m192.26 301.97h7.08c3.91 0 7.08 3.2 7.08 7.14 0 3.93-3.17 7.13-7.08 7.13h-7.08z"/>
					<path class="s6" d="m206.42 323.38c0 3.94-3.17 7.13-7.08 7.13-3.9 0-7.08-3.19-7.08-7.13 0-3.94 3.18-7.14 7.08-7.14 3.91 0 7.08 3.2 7.08 7.14z"/>
				</g>
			</g>
		</g>
		<g>
			<path fill-rule="evenodd" class="s1" d="m246.03 130.55h0.01c22.66 0 41.03 18.37 41.03 41.03 0 22.67-18.37 41.04-41.03 41.04h-0.01c-22.66 0-41.03-18.37-41.03-41.04 0-22.66 18.37-41.03 41.03-41.03z"/>
			<path class="s7" d="m265.05 158.43l-17.24-10c-1.09-0.62-2.51-0.62-3.61 0l-17.38 10c-1.12 0.65-1.88 1.86-1.88 3.16v19.97c0 1.3 0.78 2.51 1.9 3.16l4.58 2.61c2.2 1.09 2.81 1.09 3.81 1.09 3.25 0 4.94-1.97 4.94-5.41v-19.72c0.01-0.28 0.18-0.69-0.09-0.69h-2.2c-0.28 0-0.83 0.41-0.83 0.69v19.72c0 1.53-1.41 3.04-3.98 1.75l-4.74-2.73c-0.16-0.09-0.26-0.28-0.26-0.47v-19.97c0-0.19 0.18-0.38 0.34-0.48l17.34-9.98q0.13-0.07 0.28-0.07 0.14 0 0.27 0.07l17.18 9.98c0.16 0.1 0.13 0.28 0.13 0.48v19.97c0 0.19 0.04 0.38-0.12 0.47l-17.24 9.99c-0.15 0.09-0.34 0.09-0.5 0l-4.43-2.63c-0.13-0.08-0.29-0.11-0.42-0.04-1.23 0.7-1.45 0.79-2.61 1.19-0.28 0.1-0.7 0.27 0.16 0.75l5.78 3.42c0.56 0.32 1.18 0.49 1.82 0.49 0.64 0 1.27-0.17 1.82-0.49l17.18-9.99c1.12-0.65 1.69-1.86 1.69-3.16v-19.97c0-1.3-0.57-2.51-1.69-3.16zm-13.65 19.97c-4.58 0-5.59-1.27-5.93-3.54-0.04-0.25-0.25-0.54-0.5-0.54h-2.23c-0.28 0-0.5 0.33-0.5 0.61 0 2.92 1.58 6.45 9.16 6.45 5.48 0 8.62-2.13 8.62-5.9 0-3.74-2.52-4.72-7.84-5.43-5.38-0.71-5.92-1.06-5.92-2.33 0-1.03 0.46-2.42 4.44-2.42 3.56 0 4.87 0.76 5.41 3.16 0.04 0.23 0.25 0.39 0.48 0.39h2.25q0.22 0 0.37-0.16 0.14-0.16 0.13-0.38c-0.35-4.13-3.09-6.05-8.64-6.05-4.93 0-7.88 2.08-7.88 5.58 0 3.78 2.93 4.83 7.67 5.3 5.66 0.56 6.11 1.38 6.11 2.5 0 1.93-1.56 2.76-5.2 2.76z"/>
		</g>
		<g>
			<path fill-rule="evenodd" class="s1" d="m190.76 4.85h0.01c22.66 0 41.03 18.37 41.03 41.03 0 22.66-18.37 41.03-41.03 41.03h-0.01c-22.66 0-41.03-18.37-41.03-41.03 0-22.66 18.37-41.03 41.03-41.03z"/>
			<path class="s8" d="m190.48 20.81c-1.98 0.01-3.87 0.19-5.53 0.49-4.9 0.89-5.79 2.77-5.79 6.22v4.56h11.58v1.52h-15.92c-3.36 0-6.31 2.08-7.23 6.06-1.07 4.56-1.11 7.4 0 12.16 0.82 3.54 2.79 6.06 6.15 6.06h3.98v-5.46c0-3.95 3.31-7.43 7.23-7.43h11.56c3.22 0 5.79-2.74 5.79-6.08v-11.39c0-3.24-2.65-5.68-5.79-6.22-1.99-0.34-4.05-0.5-6.03-0.49zm-6.26 3.67c1.2 0 2.17 1.02 2.17 2.28 0 1.26-0.97 2.28-2.17 2.28-1.2 0-2.17-1.02-2.17-2.28 0-1.26 0.97-2.28 2.17-2.28z"/>
			<path class="s9" d="m203.74 33.6v5.31c0 4.11-3.38 7.58-7.23 7.58h-11.56c-3.17 0-5.79 2.8-5.79 6.08v11.39c0 3.24 2.73 5.15 5.79 6.08 3.66 1.11 7.18 1.31 11.56 0 2.92-0.88 5.79-2.63 5.79-6.08v-4.56h-11.56v-1.52h17.35c3.36 0 4.62-2.42 5.78-6.06 1.21-3.75 1.16-7.35 0-12.16-0.83-3.46-2.41-6.07-5.78-6.07h-4.35zm-6.5 28.85c1.2 0 2.17 1.01 2.17 2.27 0 1.26-0.97 2.29-2.17 2.29-1.2 0-2.17-1.03-2.17-2.29 0-1.26 0.97-2.27 2.17-2.27z"/>
			<path class="s10" d="m206.38 72.81c0 1.72-6.94 3.11-15.51 3.11-8.57 0-15.51-1.39-15.51-3.11 0-1.72 6.94-3.11 15.51-3.11 8.57 0 15.51 1.39 15.51 3.11z"/>
		</g>
		<g>
			<path fill-rule="evenodd" class="s1" d="m355.8 46.31c17 0 30.77 13.78 30.77 30.78 0 17-13.77 30.78-30.77 30.78-17 0-30.78-13.78-30.78-30.78 0-17 13.78-30.78 30.78-30.78z"/>
			<path class="s11" d="m345.09 71.4l10.04 5.85 10.03-5.85-10.03-5.85z"/>
			<path class="s12" d="m345.09 81.43l10.04 5.86 10.03-5.86"/>
			<path class="s12" d="m345.09 76.42l10.04 5.85 10.03-5.85"/>
			<path class="s12" d="m345.09 71.4l10.04 5.85 10.03-5.85-10.03-5.85z"/>
		</g>
		<g>
			<path fill-rule="evenodd" class="s1" d="m296.77 407.55h0.01c16.99 0 30.77 13.78 30.77 30.78 0 16.99-13.78 30.77-30.77 30.77h-0.01c-16.99 0-30.77-13.78-30.77-30.77 0-17 13.78-30.78 30.77-30.78z"/>
			<path class="s13" d="m287.44 444.76q0.04 0.17 0.14 0.31 0.1 0.13 0.25 0.22 0.15 0.09 0.32 0.11 0.17 0.02 0.33-0.02c4.99-1.38 10.25-1.38 15.24-0.01q0.16 0.05 0.33 0.03 0.17-0.02 0.32-0.11 0.15-0.09 0.25-0.22 0.1-0.14 0.14-0.31l2.66-11.32q0.06-0.23-0.02-0.46-0.08-0.22-0.26-0.38-0.18-0.15-0.42-0.18-0.23-0.03-0.45 0.06l-5.29 2.35q-0.29 0.13-0.6 0.03-0.31-0.1-0.47-0.38l-3.08-5.55q-0.11-0.19-0.3-0.31-0.2-0.11-0.43-0.12-0.23 0.01-0.42 0.12-0.2 0.12-0.31 0.31l-3.08 5.55q-0.16 0.28-0.46 0.38-0.31 0.1-0.61-0.03l-5.28-2.35q-0.22-0.09-0.46-0.06-0.23 0.03-0.42 0.18-0.18 0.16-0.26 0.38-0.07 0.23-0.02 0.46z"/>
			<path class="s14" d="m287.44 444.76q0.04 0.17 0.14 0.31 0.1 0.13 0.25 0.22 0.15 0.09 0.32 0.11 0.17 0.02 0.33-0.02c4.99-1.38 10.25-1.38 15.24-0.01q0.16 0.05 0.33 0.03 0.17-0.02 0.32-0.11 0.15-0.09 0.25-0.22 0.1-0.14 0.14-0.31l2.66-11.32q0.06-0.23-0.02-0.46-0.08-0.22-0.26-0.38-0.18-0.15-0.42-0.18-0.23-0.03-0.45 0.06l-5.29 2.35q-0.29 0.13-0.6 0.03-0.31-0.1-0.47-0.38l-3.08-5.55q-0.11-0.19-0.3-0.31-0.2-0.11-0.43-0.12-0.23 0.01-0.42 0.12-0.2 0.12-0.31 0.31l-3.08 5.55q-0.16 0.28-0.46 0.38-0.31 0.1-0.61-0.03l-5.28-2.35q-0.22-0.09-0.46-0.06-0.23 0.03-0.42 0.18-0.18 0.16-0.26 0.38-0.07 0.23-0.02 0.46z"/>
			<path class="s14" d="m292.76 441.17q3.34-0.35 6.69 0"/>
		</g>
		<g>
			<path fill-rule="evenodd" class="s1" d="m229.78 599.55c16.99 0 30.77 13.78 30.77 30.78 0 16.99-13.78 30.77-30.77 30.77-17 0-30.78-13.78-30.78-30.77 0-17 13.78-30.78 30.78-30.78z"/>
			<path class="s15" d="m219.72 621.34l6.08 16.23q0.09 0.24 0.31 0.39 0.21 0.15 0.48 0.15 0.26 0 0.47-0.15 0.22-0.16 0.31-0.4l2.44-6.7q0.06-0.18 0.19-0.31 0.13-0.13 0.31-0.19l6.7-2.44q0.24-0.09 0.4-0.31 0.15-0.21 0.15-0.47 0-0.27-0.15-0.48-0.15-0.22-0.39-0.31l-16.23-6.09q-0.23-0.08-0.47-0.03-0.24 0.05-0.41 0.23-0.18 0.17-0.23 0.41-0.05 0.24 0.04 0.47z"/>
			<path class="s16" d="m219.72 621.34l6.08 16.23q0.09 0.24 0.31 0.39 0.21 0.15 0.48 0.15 0.26 0 0.47-0.15 0.22-0.15 0.31-0.4l2.44-6.7q0.06-0.18 0.19-0.31 0.13-0.13 0.31-0.19l6.7-2.44q0.24-0.09 0.4-0.31 0.15-0.21 0.15-0.47 0-0.27-0.15-0.48-0.15-0.22-0.39-0.31l-16.23-6.09q-0.23-0.08-0.47-0.03-0.24 0.05-0.41 0.23-0.18 0.17-0.23 0.41-0.05 0.24 0.04 0.47z"/>
			<path class="s16" d="m230 630.55l7.47 7.47"/>
		</g>
	</g>
	<g style="opacity: .45">
		<g>
			<path fill-rule="evenodd" class="s1" d="m1383.91 227.55c18.18 0 32.92 14.74 32.92 32.92 0 18.17-14.74 32.91-32.92 32.91-18.17 0-32.91-14.74-32.91-32.91 0-18.18 14.74-32.92 32.91-32.92z"/>
			<path class="s17" d="m1376.6 255.89l-5.49 4.57 5.49 4.58"/>
			<path class="s17" d="m1391.23 255.89l5.48 4.57-5.48 4.58"/>
			<path class="s17" d="m1387.57 250.41l-7.31 20.11"/>
		</g>
		<g>
			<path fill-rule="evenodd" class="s1" d="m1273.4 0.55c18.18 0 32.92 14.74 32.92 32.91 0 18.18-14.74 32.92-32.92 32.92-18.17 0-32.91-14.74-32.91-32.92 0-18.17 14.74-32.91 32.91-32.91z"/>
			<path class="s18" d="m1262.56 27.36q-0.13 0.22-0.13 0.47v11.27q0.01 0.25 0.13 0.46 0.13 0.22 0.34 0.34l10.06 5.66q0.21 0.11 0.44 0.11l0.11-12.21z"/>
			<path class="s19" d="m1284.37 39.1v-11.27q0-0.25-0.12-0.46-0.12-0.22-0.34-0.34l-10.06-5.66q-0.21-0.11-0.45-0.11-0.23 0-0.44 0.11l-10.06 5.66q-0.21 0.12-0.34 0.34-0.12 0.21-0.13 0.46v11.27q0.01 0.25 0.13 0.46 0.13 0.22 0.34 0.34l10.06 5.66q0.21 0.11 0.44 0.11 0.24 0 0.45-0.11l10.06-5.66q0.22-0.12 0.34-0.34 0.12-0.21 0.12-0.46z"/>
			<path class="s19" d="m1279.01 36.27v-5.95l-11.09-6.11"/>
			<path class="s19" d="m1284.25 27.37l-10.74 6.09-10.95-6.1"/>
			<path class="s19" d="m1273.51 33.46l-0.11 12.21"/>
		</g>
		<g>
			<path fill-rule="evenodd" class="s1" d="m1418.96 530.43c18.18 0 32.92 14.73 32.92 32.91 0 18.18-14.74 32.92-32.92 32.92-18.17 0-32.91-14.74-32.91-32.92 0-18.18 14.74-32.91 32.91-32.91z"/>
			<path class="s20" d="m1410.74 555.11v6.3c0 4.54 3.62 8.3 8.16 8.33q1.65 0.01 3.17-0.61c1-0.41 1.92-1.01 2.69-1.78q1.16-1.16 1.8-2.67 0.63-1.52 0.63-3.17v-6.4q0-0.37-0.27-0.64-0.27-0.27-0.64-0.27h-14.63c-0.24 0-0.48 0.09-0.65 0.27q-0.26 0.27-0.26 0.64z"/>
			<path class="s21" d="m1410.74 555.11v6.3c0 4.54 3.62 8.3 8.16 8.33q1.65 0.01 3.17-0.61c1-0.41 1.92-1.01 2.69-1.78q1.16-1.16 1.8-2.67 0.63-1.52 0.63-3.17v-6.4q0-0.37-0.27-0.64-0.27-0.27-0.64-0.27h-14.63c-0.24 0-0.48 0.09-0.65 0.27q-0.26 0.27-0.26 0.64z"/>
			<path class="s21" d="m1415.31 574.31h7.31"/>
			<path class="s21" d="m1418.96 569.74v4.57"/>
			<path class="s21" d="m1426.99 563.34h1.12c0.97 0 1.9-0.38 2.58-1.07 0.69-0.69 1.07-1.62 1.07-2.59v-1.83q0-0.37-0.26-0.64-0.28-0.26-0.65-0.27h-3.66"/>
			<path class="s21" d="m1410.96 563.34h-1.15c-0.97 0-1.9-0.38-2.59-1.07-0.69-0.69-1.07-1.62-1.07-2.59v-1.83q0.01-0.37 0.27-0.64 0.27-0.26 0.64-0.27h3.66"/>
		</g>
		<g>
			<path fill-rule="evenodd" class="s1" d="m1342.76 359.55c29.13 0 52.75 23.62 52.75 52.76 0 29.13-23.62 52.75-52.75 52.75-29.14 0-52.76-23.62-52.76-52.75 0-29.14 23.62-52.76 52.76-52.76z"/>
			<path class="s22" d="m1320.6 405.35c0 0-1.11-0.81 0.22-1.88l3.11-2.79c0 0 0.89-0.94 1.83-0.12l28.71 21.79v10.44c0 0-0.01 1.64-2.11 1.46z"/>
			<path class="s23" d="m1328 412.08l-7.4 6.74c0 0-0.76 0.57 0 1.58l3.43 3.13c0 0 0.82 0.88 2.03-0.12l7.84-5.96z"/>
			<path class="s24" d="m1340.99 412.13l13.57-10.38-0.09-10.39c0 0-0.58-2.27-2.51-1.09l-18.06 16.48z"/>
			<path class="s25" d="m1352.36 434.26c0.78 0.81 1.74 0.55 1.74 0.55l10.57-5.22c1.36-0.93 1.17-2.08 1.17-2.08v-31.19c0-1.37-1.4-1.84-1.4-1.84l-9.17-4.43c-2-1.24-3.31 0.22-3.31 0.22 0 0 1.68-1.21 2.51 1.09v41.24q0 0.43-0.18 0.81c-0.24 0.49-0.77 0.95-2.02 0.76z"/>
		</g>
		<g>
			<path fill-rule="evenodd" class="s1" d="m1391.86 68.78c28.31 0 51.25 22.95 51.25 51.26v1c0 28.31-22.94 51.26-51.25 51.26-28.31 0-51.26-22.95-51.26-51.26v-1c0-28.31 22.95-51.26 51.26-51.26z"/>
			<path class="s26" d="m1391.86 124.55c2.16 0 3.92-1.8 3.92-4.01 0-2.21-1.76-4.01-3.92-4.01-2.16 0-3.92 1.8-3.92 4.01 0 2.21 1.76 4.01 3.92 4.01z"/>
			<path class="s26" d="m1406.74 113.93q-1.12-0.43-2.37-0.81 0.31-1.27 0.52-2.49c0.72-4.64-0.07-7.91-2.27-9.18q-0.97-0.57-2.2-0.56c-2.41 0-5.47 1.83-8.56 4.89-3.09-3.06-6.15-4.89-8.56-4.89q-1.23-0.01-2.2 0.56c-2.2 1.3-2.99 4.57-2.27 9.18q0.21 1.22 0.52 2.49c-0.83 0.25-1.62 0.5-2.37 0.81-4.3 1.69-6.64 4.01-6.64 6.61 0 2.6 2.37 4.92 6.64 6.61q1.13 0.43 2.37 0.81-0.31 1.27-0.52 2.5c-0.72 4.64 0.07 7.91 2.27 9.17q0.97 0.57 2.2 0.56c2.44 0 5.5-1.82 8.56-4.88 3.09 3.06 6.15 4.88 8.56 4.88q1.23 0.01 2.2-0.56c2.2-1.3 2.99-4.57 2.27-9.17q-0.21-1.23-0.52-2.5c0.83-0.25 1.62-0.49 2.37-0.81 4.3-1.69 6.64-4.01 6.64-6.61 0-2.6-2.34-4.92-6.64-6.61zm-5.08-10.72c1.41 0.84 1.89 3.44 1.3 7.14q-0.16 1.1-0.48 2.32-2.69-0.63-5.67-0.88-1.76-2.52-3.57-4.57c2.54-2.57 5.12-4.33 7.21-4.33q0.68 0 1.21 0.32zm-3.85 20.85q-0.95 1.68-2.1 3.37-1.89 0.15-3.85 0.14-2 0.01-3.85-0.14-1.14-1.69-2.06-3.37c-0.66-1.16-1.27-2.36-1.82-3.52 0.55-1.16 1.16-2.35 1.82-3.51 0.62-1.13 1.34-2.25 2.09-3.38q1.91-0.15 3.85-0.14 2.01-0.01 3.85 0.14 1.14 1.69 2.07 3.38c0.65 1.16 1.27 2.35 1.82 3.51-0.59 1.16-1.17 2.32-1.82 3.52zm2.85-1.16c0.52 1.23 0.93 2.42 1.31 3.62q-1.76 0.41-3.72 0.67c0.42-0.67 0.86-1.38 1.24-2.11q0.61-1.12 1.17-2.18zm-8.8 9.53q-1.24-1.39-2.37-2.92 1.19 0.06 2.37 0.07 1.19-0.01 2.37-0.07-1.12 1.53-2.37 2.92zm-6.39-5.28q-1.96-0.25-3.72-0.67c0.38-1.16 0.79-2.39 1.31-3.62 0.38 0.7 0.76 1.44 1.17 2.15 0.41 0.77 0.82 1.44 1.24 2.14zm-2.41-8.96c-0.52-1.23-0.93-2.43-1.31-3.63q1.76-0.41 3.72-0.66c-0.42 0.66-0.86 1.37-1.24 2.11q-0.61 1.11-1.17 2.18zm8.8-9.53q1.25 1.38 2.37 2.92-1.18-0.06-2.37-0.07-1.18 0.01-2.37 0.07 1.13-1.54 2.37-2.92zm7.63 7.38l-1.24-2.11q1.96 0.26 3.72 0.67c-0.38 1.16-0.79 2.39-1.31 3.62q-0.56-1.11-1.17-2.18zm-18.73-5.69c-0.59-3.7-0.11-6.3 1.3-7.14q0.53-0.32 1.21-0.32c2.06 0 4.64 1.73 7.22 4.33-1.21 1.33-2.41 2.88-3.58 4.57-1.99 0.17-3.88 0.49-5.67 0.88q-0.3-1.22-0.48-2.32zm-8.49 10.19c0-1.65 1.96-3.41 5.39-4.71 0.69-0.28 1.45-0.53 2.2-0.74 0.55 1.76 1.24 3.62 2.07 5.49-0.83 1.86-1.55 3.69-2.07 5.45-4.74-1.41-7.59-3.52-7.59-5.49zm9.79 17.33c-1.41-0.84-1.89-3.44-1.3-7.13q0.16-1.11 0.48-2.32 2.69 0.62 5.67 0.88 1.76 2.52 3.58 4.57c-2.55 2.56-5.13 4.32-7.22 4.32q-0.68 0-1.21-0.32zm20.9-7.13c0.59 3.69 0.11 6.29-1.3 7.13q-0.53 0.32-1.21 0.32c-2.06 0-4.64-1.72-7.21-4.32 1.2-1.34 2.4-2.89 3.57-4.57 1.99-0.18 3.88-0.5 5.67-0.88q0.3 1.21 0.48 2.32zm3.1-5.49c-0.69 0.28-1.45 0.53-2.2 0.74-0.55-1.76-1.24-3.62-2.07-5.48 0.83-1.87 1.55-3.7 2.07-5.45 4.74 1.4 7.59 3.51 7.59 5.48 0 1.65-1.99 3.41-5.39 4.71z"/>
		</g>
	</g>
</svg>