<svg width="692" height="268" viewBox="0 0 692 268" fill="none" xmlns="http://www.w3.org/2000/svg">
<g filter="url(#filter0_d_47_1475)">
<rect width="671" height="268" rx="13" transform="matrix(-1 0 0 1 681.2 0)" fill="white"/>
</g>
<path d="M645.918 270L645.982 271.999L645.95 272L645.917 272L645.918 270ZM678.828 170.894C678.887 169.791 679.828 168.944 680.931 169.003C682.034 169.062 682.881 170.003 682.822 171.106L678.828 170.894ZM429.2 269.998L429.2 267.998L645.918 268L645.918 270L645.917 272L429.2 271.998L429.2 269.998ZM645.918 270L645.853 268.001C654.472 267.723 662.946 266.473 669.195 264.056C675.573 261.589 678.825 258.268 678.825 254.248L680.825 254.248L682.825 254.248C682.825 260.916 677.35 265.19 670.638 267.786C663.796 270.433 654.817 271.714 645.982 271.999L645.918 270ZM680.825 254.248L678.825 254.248C678.825 243.671 677.855 189.15 678.828 170.894L680.825 171L682.822 171.106C681.856 189.226 682.825 243.449 682.825 254.248L680.825 254.248Z" fill="#33D3D4" fill-opacity="0.62"/>
<defs>
<filter id="filter0_d_47_1475" x="1.23978e-05" y="-6.2" width="691.4" height="288.4" filterUnits="userSpaceOnUse" color-interpolation-filters="sRGB">
<feFlood flood-opacity="0" result="BackgroundImageFix"/>
<feColorMatrix in="SourceAlpha" type="matrix" values="0 0 0 0 0 0 0 0 0 0 0 0 0 0 0 0 0 0 127 0" result="hardAlpha"/>
<feOffset dy="4"/>
<feGaussianBlur stdDeviation="5.1"/>
<feComposite in2="hardAlpha" operator="out"/>
<feColorMatrix type="matrix" values="0 0 0 0 0 0 0 0 0 0 0 0 0 0 0 0 0 0 0.05 0"/>
<feBlend mode="normal" in2="BackgroundImageFix" result="effect1_dropShadow_47_1475"/>
<feBlend mode="normal" in="SourceGraphic" in2="effect1_dropShadow_47_1475" result="shape"/>
</filter>
</defs>
</svg>
