<svg width="217" height="45" viewBox="0 0 217 45" fill="none" xmlns="http://www.w3.org/2000/svg">
<path d="M12.736 27.3593H0V40.0996H12.736V27.3593Z" fill="#2FB6BC"/>
<path d="M38.2087 14.6189H25.4727V27.3593H38.2087V14.6189Z" fill="#EA5289"/>
<path d="M25.4704 14.6189H12.7344V27.3593H25.4704V14.6189Z" fill="#F088B6"/>
<path d="M63.6813 1.88245H50.9453V14.6228H63.6813V1.88245Z" fill="#6B6BAF"/>
<path d="M63.6813 14.6189H50.9453V27.3593H63.6813V14.6189Z" fill="#5E58A2"/>
<path d="M63.6813 27.3593H50.9453V40.0996H63.6813V27.3593Z" fill="#473391"/>
<path d="M50.943 1.88245H38.207V14.6228H50.943V1.88245Z" fill="#8A87C0"/>
<path d="M38.2087 27.3593H25.4727V40.0996H38.2087V27.3593Z" fill="#E60064"/>
<path d="M85.1747 30.3992H83.2734V32.075H85.1747V30.3992Z" fill="#473391"/>
<path d="M96.4559 42.2899H94.5547V43.9658H96.4559V42.2899Z" fill="#473391"/>
<path d="M136.284 30.3992H134.383V32.075H136.284V30.3992Z" fill="#473391"/>
<path d="M99.1434 42.2899H97.2422V43.9658H99.1434V42.2899Z" fill="#473391"/>
<path d="M87.8544 30.3992H85.9531V32.075H87.8544V30.3992Z" fill="#473391"/>
<path d="M133.6 30.3992H131.699V32.075H133.6V30.3992Z" fill="#473391"/>
<path d="M190.865 33.8522C190.261 33.5716 189.552 33.4313 188.745 33.4313C188.321 33.4313 187.892 33.4664 187.456 33.5365C187.023 33.6028 186.587 33.6885 186.17 33.786L186.361 35.3488C186.825 35.2826 187.253 35.2319 187.643 35.1968C188.036 35.1578 188.348 35.1461 188.57 35.1461C189.365 35.1461 189.945 35.2981 190.311 35.6021C190.685 35.9061 190.865 36.3504 190.865 36.9389V39.1214H168.915V30.4109H166.939V40.961C166.939 41.3078 166.861 41.6196 166.709 41.8885C166.558 42.1652 166.316 42.3796 165.981 42.5355C165.65 42.6914 165.21 42.7732 164.672 42.7732C164.134 42.7732 163.71 42.6914 163.339 42.5316C162.973 42.3679 162.693 42.1457 162.49 41.8612C162.295 41.5767 162.194 41.2377 162.194 40.8479C162.194 40.6725 162.217 40.3919 162.256 40.0061C162.295 39.6242 162.35 39.1643 162.424 38.6148C162.502 38.073 162.591 37.4651 162.701 36.8103L160.753 36.5492C160.694 36.9389 160.632 37.3442 160.569 37.7651C160.503 38.1783 160.445 38.5875 160.394 38.9928C160.336 39.3981 160.293 39.7606 160.266 40.0841C160.238 40.4075 160.223 40.6726 160.223 40.8674C160.223 41.5611 160.414 42.1886 160.799 42.742C161.181 43.2877 161.707 43.7203 162.381 44.0281C163.051 44.3399 163.819 44.4958 164.672 44.4958C165.525 44.4958 166.215 44.3477 166.854 44.0554C167.493 43.7709 167.999 43.3539 168.365 42.8278C168.732 42.2977 168.919 41.6781 168.919 40.9687V40.8401H192.828V36.9467C192.828 36.2062 192.653 35.5787 192.302 35.0604C191.956 34.5421 191.472 34.1406 190.865 33.86V33.8522Z" fill="#473391"/>
<path d="M196.995 30.4109H195.039V40.8323H196.995V30.4109Z" fill="#473391"/>
<path d="M215.594 34.9669C215.302 34.4135 214.866 34.0198 214.285 33.7704C213.697 33.5288 212.965 33.4041 212.08 33.4041C211.476 33.4041 210.919 33.4469 210.417 33.5366C209.918 33.6223 209.544 33.7119 209.31 33.7977C209.256 34.0276 209.193 34.3238 209.123 34.6902C209.061 35.0604 209.006 35.4735 208.956 35.9295C208.901 36.3855 208.878 36.8649 208.878 37.3559C208.878 37.847 208.901 38.2952 208.944 38.7239C208.959 38.8603 208.971 39.0006 208.987 39.1253H202.087V33.4352H200.116V41.0545C200.116 41.604 200.003 42.0327 199.769 42.3367C199.539 42.6407 199.231 42.7966 198.849 42.7966C198.779 42.7966 198.674 42.7927 198.53 42.781C198.386 42.7693 198.238 42.7615 198.082 42.7537L198.012 44.4296C198.168 44.4491 198.323 44.4608 198.464 44.4764C198.612 44.488 198.748 44.4919 198.877 44.4919C199.516 44.4919 200.077 44.3439 200.556 44.0554C201.039 43.7709 201.413 43.3656 201.682 42.8395C201.954 42.3211 202.087 41.7248 202.087 41.0584V40.8402H216.023V37.2001C216.023 36.2647 215.879 35.5242 215.59 34.9747L215.594 34.9669ZM214.071 39.1214H210.97C210.946 38.911 210.919 38.6771 210.892 38.4277C210.857 38.0536 210.845 37.6989 210.845 37.3559C210.845 36.9779 210.865 36.5999 210.904 36.214C210.943 35.8516 210.985 35.5047 211.032 35.1812C211.375 35.1384 211.726 35.1189 212.08 35.1189C212.594 35.1189 212.996 35.1734 213.28 35.2982C213.572 35.4229 213.775 35.6294 213.896 35.9334C214.016 36.2335 214.071 36.6505 214.071 37.1806V39.1253V39.1214Z" fill="#473391"/>
<path d="M131.716 33.8523C131.179 34.1329 130.777 34.5499 130.516 35.0955C130.255 35.6489 130.127 36.327 130.127 37.1299C130.127 37.9327 130.244 38.6109 130.493 39.1214H123.617V37.1923C123.617 36.2569 123.469 35.5164 123.184 34.9669C122.892 34.4135 122.456 34.0198 121.871 33.7704C121.291 33.5288 120.554 33.4041 119.67 33.4041C119.062 33.4041 118.509 33.4469 118.002 33.5366C117.504 33.6223 117.134 33.7119 116.896 33.7977C116.838 34.0276 116.779 34.3238 116.717 34.6902C116.651 35.0604 116.592 35.4735 116.545 35.9295C116.499 36.3855 116.475 36.8649 116.475 37.3559C116.475 37.847 116.495 38.2952 116.541 38.7239C116.557 38.8603 116.569 39.0006 116.584 39.1253H98.3354V33.4352H96.3796V39.1253H88.8058V33.4352H85.4748C84.641 33.4352 83.9514 33.5716 83.4099 33.8523C82.8722 34.1329 82.4709 34.5499 82.2099 35.1072C81.9489 35.6606 81.8203 36.3504 81.8203 37.1806C81.8203 38.0107 81.9489 38.6849 82.2099 39.2228C82.4709 39.7645 82.8722 40.1659 83.4099 40.4348C83.9475 40.6998 84.641 40.8363 85.4748 40.8363H137.112V33.4352H133.781C132.947 33.4352 132.258 33.5716 131.72 33.8523H131.716ZM86.8267 39.1214H85.4709C85.0462 39.1214 84.715 39.0786 84.4696 38.9889C84.2203 38.8993 84.0488 38.7161 83.9436 38.4355C83.8384 38.1549 83.7878 37.734 83.7878 37.1767C83.7878 36.5843 83.8462 36.1478 83.9592 35.8555C84.0722 35.5632 84.2514 35.3761 84.4969 35.2787C84.7384 35.189 85.0618 35.1423 85.467 35.1423H86.8228V39.1214H86.8267ZM121.649 39.1214H118.556C118.528 38.911 118.501 38.6771 118.478 38.4277C118.447 38.0536 118.427 37.6989 118.427 37.3559C118.427 36.9779 118.447 36.5999 118.486 36.214C118.524 35.8516 118.571 35.5047 118.618 35.1812C118.961 35.1384 119.308 35.1189 119.666 35.1189C120.176 35.1189 120.578 35.1734 120.866 35.2982C121.158 35.4229 121.361 35.6294 121.474 35.9334C121.595 36.2335 121.649 36.6505 121.649 37.1806V39.1253V39.1214ZM135.137 39.1214H133.777C133.345 39.1214 133.006 39.0747 132.764 38.9772C132.515 38.8876 132.344 38.7005 132.246 38.4199C132.153 38.1393 132.098 37.7106 132.098 37.1299C132.098 36.5999 132.153 36.1906 132.246 35.8984C132.347 35.6061 132.519 35.4073 132.764 35.3021C133.006 35.1929 133.345 35.1384 133.777 35.1384H135.137V39.1175V39.1214Z" fill="#473391"/>
<path d="M148.803 39.1214H141.907V33.4313H139.936V41.0506C139.936 41.5962 139.823 42.0288 139.589 42.3328C139.359 42.6368 139.051 42.7888 138.67 42.7888C138.6 42.7888 138.494 42.7849 138.35 42.7732C138.214 42.7615 138.058 42.7537 137.902 42.7459L137.832 44.4218C137.988 44.4413 138.14 44.453 138.288 44.4685C138.432 44.4763 138.568 44.4841 138.697 44.4841C139.336 44.4841 139.897 44.336 140.376 44.0476C140.855 43.7631 141.233 43.3578 141.498 42.8317C141.771 42.3133 141.903 41.717 141.903 41.0506V40.8323H150.775V30.4109H148.803V39.1214Z" fill="#473391"/>
<path d="M155.1 30.4109H153.137V40.8323H155.1V30.4109Z" fill="#473391"/>
<path d="M93.7202 14.3851L88.445 1.72656H80.8945V24.8377H86.2398V8.34812L91.1722 20.422H96.237L101.204 8.34812V24.8377H106.55V1.72656H98.9992L93.7202 14.3851Z" fill="#473391"/>
<path d="M124.201 9.1081C123.534 8.21171 122.712 7.52189 121.735 7.03862C120.757 6.55535 119.67 6.31372 118.477 6.31372C117.215 6.31372 116.05 6.53976 114.994 6.98795C113.939 7.43614 113.035 8.07531 112.287 8.90154C111.539 9.72777 110.958 10.7255 110.545 11.8869C110.132 13.0483 109.926 14.3305 109.926 15.7335C109.926 17.1366 110.14 18.3798 110.565 19.5296C110.989 20.6793 111.582 21.6692 112.341 22.4954C113.101 23.3216 114.001 23.9725 115.049 24.4441C116.093 24.9157 117.239 25.1534 118.481 25.1534C119.724 25.1534 120.854 24.904 121.879 24.4129C122.899 23.9179 123.675 23.2476 124.205 22.3941V24.8416H129.378V6.6294H124.205V9.112L124.201 9.1081ZM123.873 17.5926C123.655 18.146 123.344 18.6215 122.942 19.0229C122.541 19.4243 122.07 19.74 121.528 19.9699C120.987 20.1999 120.383 20.3129 119.716 20.3129C119.05 20.3129 118.474 20.1999 117.924 19.9699C117.375 19.74 116.9 19.4243 116.51 19.0229C116.12 18.6215 115.809 18.1382 115.579 17.5731C115.349 17.008 115.236 16.4078 115.236 15.7608C115.236 15.1139 115.345 14.4786 115.563 13.9135C115.781 13.3523 116.093 12.869 116.494 12.4637C116.896 12.0623 117.375 11.7466 117.924 11.5166C118.477 11.2867 119.074 11.1737 119.716 11.1737C121.049 11.1737 122.128 11.5985 122.958 12.4481C123.784 13.3016 124.197 14.4046 124.197 15.7608C124.197 16.4273 124.088 17.0392 123.87 17.5887L123.873 17.5926Z" fill="#473391"/>
<path d="M138.408 9.90307V6.62542H133.238V24.8376H138.408V16.4895C138.408 15.6165 138.576 14.8566 138.907 14.2135C139.238 13.5705 139.698 13.0365 140.286 12.6078C140.874 12.183 141.568 11.8673 142.37 11.6608C143.177 11.4542 144.061 11.3607 145.028 11.3841V6.27856C143.695 6.27856 142.448 6.57865 141.287 7.17494C140.126 7.77513 139.168 8.68321 138.408 9.89917V9.90307Z" fill="#473391"/>
<path d="M160.892 9.1081C160.226 8.21171 159.404 7.52189 158.426 7.03862C157.448 6.55535 156.365 6.31372 155.169 6.31372C153.903 6.31372 152.742 6.53976 151.686 6.98795C150.63 7.43614 149.726 8.07531 148.978 8.90154C148.23 9.72777 147.65 10.7255 147.237 11.8869C146.824 13.0483 146.617 14.3305 146.617 15.7335C146.617 17.1366 146.831 18.3798 147.256 19.5296C147.681 20.6793 148.273 21.6692 149.033 22.4954C149.792 23.3216 150.692 23.9725 151.74 24.4441C152.788 24.9157 153.93 25.1534 155.173 25.1534C156.416 25.1534 157.545 24.904 158.57 24.4129C159.591 23.9179 160.366 23.2476 160.896 22.3941V24.8416H166.07V6.6294H160.896V9.112L160.892 9.1081ZM160.565 17.5926C160.347 18.146 160.035 18.6215 159.634 19.0229C159.232 19.4243 158.761 19.74 158.219 19.9699C157.678 20.1999 157.074 20.3129 156.408 20.3129C155.742 20.3129 155.169 20.1999 154.616 19.9699C154.062 19.74 153.591 19.4243 153.201 19.0229C152.812 18.6215 152.5 18.1382 152.27 17.5731C152.04 17.008 151.927 16.4078 151.927 15.7608C151.927 15.1139 152.037 14.4786 152.255 13.9135C152.473 13.3523 152.785 12.869 153.186 12.4637C153.587 12.0623 154.066 11.7466 154.616 11.5166C155.169 11.2867 155.765 11.1737 156.408 11.1737C157.74 11.1737 158.823 11.5985 159.649 12.4481C160.475 13.3016 160.888 14.4046 160.888 15.7608C160.888 16.4273 160.779 17.0392 160.561 17.5887L160.565 17.5926Z" fill="#473391"/>
<path d="M185.42 8.24674C184.859 7.62707 184.181 7.1438 183.386 6.79694C182.596 6.45007 181.715 6.2786 180.749 6.2786C179.716 6.2786 178.696 6.52023 177.698 7.00349C176.697 7.48676 175.832 8.1649 175.096 9.0379V0H169.926V24.8338H175.096V15.3126C175.119 14.6929 175.232 14.1161 175.443 13.5861C175.649 13.056 175.926 12.6001 176.268 12.2064C176.615 11.8167 177.016 11.5127 177.476 11.2906C177.936 11.0723 178.431 10.9632 178.957 10.9632C179.9 10.9632 180.651 11.275 181.216 11.8946C181.781 12.5143 182.062 13.3327 182.062 14.3422V24.8299H187.236V13.2392C187.236 12.2259 187.076 11.2983 186.753 10.4448C186.429 9.59521 185.989 8.85863 185.424 8.23895L185.42 8.24674Z" fill="#473391"/>
<path d="M208.611 14.2135C208.518 13.0404 208.221 11.9648 207.715 10.9904C207.209 10.0122 206.55 9.18207 205.732 8.48834C204.914 7.79851 203.963 7.25679 202.868 6.86705C201.777 6.47732 200.597 6.27856 199.335 6.27856C197.956 6.27856 196.693 6.5163 195.544 6.98398C194.395 7.45556 193.405 8.10641 192.579 8.93264C191.753 9.75888 191.106 10.7566 190.647 11.9141C190.187 13.0755 189.957 14.346 189.957 15.7257C189.957 17.1053 190.191 18.3759 190.662 19.5373C191.134 20.6987 191.788 21.6925 192.63 22.5226C193.467 23.3488 194.48 23.9958 195.665 24.4518C196.849 24.9117 198.143 25.1416 199.541 25.1416C201.77 25.1416 203.655 24.5999 205.198 23.5203C206.737 22.4408 207.773 20.874 208.303 18.8279H203.164C202.935 19.4476 202.514 19.9309 201.906 20.2778C201.298 20.6207 200.578 20.7961 199.752 20.7961C198.579 20.7961 197.605 20.4687 196.837 19.814C196.066 19.1592 195.579 18.255 195.372 17.1053H208.681C208.705 16.8091 208.716 16.4973 208.716 16.1739C208.716 16.0141 208.712 15.7763 208.701 15.4685C208.689 15.1567 208.662 14.7396 208.615 14.2096L208.611 14.2135ZM195.443 14.042C195.696 13.0053 196.179 12.1986 196.892 11.6101C197.605 11.0216 198.466 10.7332 199.479 10.7332C200.581 10.7332 201.497 11.0255 202.218 11.6101C202.942 12.1986 203.363 13.0053 203.476 14.042H195.443Z" fill="#473391"/>
<path d="M216.783 0.00390625H211.609V24.8377H216.783V0.00390625Z" fill="#473391"/>
</svg>
