<svg width="48" height="48" viewBox="0 0 48 48" fill="none" xmlns="http://www.w3.org/2000/svg">
<path opacity="0.2" d="M27.75 27H40.5C40.8978 27 41.2794 26.842 41.5607 26.5607C41.842 26.2794 42 25.8978 42 25.5V13.5C42 13.1022 41.842 12.7206 41.5607 12.4393C41.2794 12.158 40.8978 12 40.5 12H29.25C28.8522 12 28.4706 12.158 28.1893 12.4393C27.908 12.7206 27.75 13.1022 27.75 13.5V27Z" fill="#42B8BD"/>
<path opacity="0.2" d="M6 27H18.75C19.1478 27 19.5294 26.842 19.8107 26.5607C20.092 26.2794 20.25 25.8978 20.25 25.5V13.5C20.25 13.1022 20.092 12.7206 19.8107 12.4393C19.5294 12.158 19.1478 12 18.75 12H7.5C7.10218 12 6.72064 12.158 6.43934 12.4393C6.15803 12.7206 6 13.1022 6 13.5V27Z" fill="#42B8BD"/>
<path d="M27.75 27H40.5C40.8978 27 41.2794 26.842 41.5607 26.5607C41.842 26.2794 42 25.8978 42 25.5V13.5C42 13.1022 41.842 12.7206 41.5607 12.4393C41.2794 12.158 40.8978 12 40.5 12H29.25C28.8522 12 28.4706 12.158 28.1893 12.4393C27.908 12.7206 27.75 13.1022 27.75 13.5V30C27.75 31.9891 28.5402 33.8968 29.9467 35.3033C31.3532 36.7098 33.2609 37.5 35.25 37.5" stroke="#42B8BD" stroke-width="2" stroke-linecap="round" stroke-linejoin="round"/>
<path d="M6 27H18.75C19.1478 27 19.5294 26.842 19.8107 26.5607C20.092 26.2794 20.25 25.8978 20.25 25.5V13.5C20.25 13.1022 20.092 12.7206 19.8107 12.4393C19.5294 12.158 19.1478 12 18.75 12H7.5C7.10218 12 6.72064 12.158 6.43934 12.4393C6.15803 12.7206 6 13.1022 6 13.5V30C6 31.9891 6.79018 33.8968 8.1967 35.3033C9.60322 36.7098 11.5109 37.5 13.5 37.5" stroke="#42B8BD" stroke-width="2" stroke-linecap="round" stroke-linejoin="round"/>
</svg>
